# Exported from Nomad Sculpt
o crank
usemtl mat0_crank
v -0.01806622 -0.03833586 -0.44889995 1 1 1
v -0.01630484 -0.05366786 -0.44855428 1 1 1
v -0.01079841 -0.05607765 -0.44893986 1 1 1
v -0.01331465 -0.03417477 -0.44943374 1 1 1
v -0.03091458 -0.032713 -0.44800016 1 1 1
v -0.03166946 -0.0261421 -0.44814834 1 1 1
v -0.01343221 -0.05874464 -0.48796824 1 1 1
v -0.01605417 -0.03698255 -0.49011523 1 1 1
v -0.0344711 -0.02903268 -0.48980132 1 1 1
v -0.0291532 -0.048045 -0.44765449 1 1 1
v -0.02739184 -0.06337702 -0.44730878 1 1 1
v -0.04200157 -0.04242216 -0.44675469 1 1 1
v -0.02663695 -0.06994788 -0.44716063 1 1 1
v -0.02922716 -0.0725568 -0.4855074 1 1 1
v -0.01410687 -0.06613296 -0.51512355 1 1 1
v -0.01681414 -0.04686363 -0.52462554 1 1 1
v -0.02986647 -0.07891209 -0.50961459 1 1 1
v -0.03528101 -0.0403734 -0.52861851 1 1 1
v -0.05104061 -0.05315253 -0.52310956 1 1 1
v -0.05026605 -0.04284483 -0.48734042 1 1 1
v -0.04750801 -0.04001235 -0.44636908 1 1 1
v -0.04024019 -0.05775416 -0.44640899 1 1 1
v -0.04499175 -0.06191525 -0.44587523 1 1 1
v -0.0476441 -0.06460692 -0.48519346 1 1 1
v -0.04833334 -0.07242186 -0.51360756 1 1 1
v -0.02869865 -0.08904755 -0.51539713 1 1 1
v -0.01230537 -0.08425545 -0.52648669 1 1 1
v -0.04661802 -0.08945816 -0.5242117 1 1 1
v -0.01383146 -0.07987396 -0.54639077 1 1 1
v -0.03175084 -0.0802846 -0.5552054 1 1 1
v -0.04814413 -0.08507667 -0.54411584 1 1 1
v -0.04455665 -0.11808056 -0.52565926 1 1 1
v -0.02677263 -0.11582185 -0.51669508 1 1 1
v -0.04569205 -0.11903395 -0.54599518 1 1 1
v -0.01012399 -0.11451652 -0.52806687 1 1 1
v -0.01125938 -0.11546991 -0.54840279 1 1 1
v -0.0290434 -0.11772861 -0.55736691 1 1 1
v -0.04363104 -0.15981324 -0.54289305 1 1 1
v -0.04257593 -0.15731271 -0.52265942 1 1 1
v -0.02691994 -0.15971214 -0.55418521 1 1 1
v -0.0248097 -0.15471108 -0.51371795 1 1 1
v -0.00809858 -0.15460993 -0.52501005 1 1 1
v -0.00915371 -0.15711051 -0.54524374 1 1 1
v -0.02501535 -0.20881855 -0.54941481 1 1 1
v -0.04172569 -0.20893942 -0.53812087 1 1 1
v -0.00723567 -0.20655988 -0.54044181 1 1 1
v -0.04065635 -0.2068015 -0.51785386 1 1 1
v -0.02287666 -0.20454282 -0.50888085 1 1 1
v -0.00616633 -0.20442194 -0.5201748 1 1 1
v -0.00454611 -0.25547263 -0.51764834 1 1 1
v -0.00568046 -0.25556216 -0.53800064 1 1 1
v -0.02349373 -0.25676173 -0.54701787 1 1 1
v -0.0401727 -0.25787196 -0.53568268 1 1 1
v -0.03903836 -0.2577824 -0.51533031 1 1 1
v -0.02122508 -0.25658283 -0.50631309 1 1 1
v -0.00343292 -0.30006668 -0.52190077 1 1 1
v -0.00470501 -0.29452145 -0.54157722 1 1 1
v -0.02004035 -0.30410179 -0.51091641 1 1 1
v -0.02258455 -0.29301137 -0.55026931 1 1 1
v -0.039192 -0.29704645 -0.539285 1 1 1
v -0.03791989 -0.30259171 -0.51960856 1 1 1
v -0.01957659 -0.34129447 -0.5308705 1 1 1
v -0.00303661 -0.33153173 -0.53862524 1 1 1
v -0.03751687 -0.33462751 -0.53665489 1 1 1
v -0.00443692 -0.31510201 -0.55216455 1 1 1
v -0.02237718 -0.30843499 -0.55794895 1 1 1
v -0.03891715 -0.31819776 -0.55019414 1 1 1
v -0.03785966 -0.34912193 -0.5642947 1 1 1
v -0.01997083 -0.35823578 -0.56293321 1 1 1
v -0.03915136 -0.32752725 -0.56849796 1 1 1
v -0.00337368 -0.34575495 -0.56577504 1 1 1
v -0.00466538 -0.32416034 -0.56997836 1 1 1
v -0.0225542 -0.31504646 -0.57133985 1 1 1
v -0.03979521 -0.32937568 -0.59480453 1 1 1
v -0.03862232 -0.35145253 -0.59559733 1 1 1
v -0.02313554 -0.31664094 -0.59501654 1 1 1
v -0.02078979 -0.36079487 -0.5966022 1 1 1
v -0.00413012 -0.34806019 -0.59681422 1 1 1
v -0.00530299 -0.32598329 -0.59602141 1 1 1
v -0.02400402 -0.31397045 -0.6252889 1 1 1
v -0.04068417 -0.32665122 -0.62579995 1 1 1
v -0.00618989 -0.32326427 -0.62694407 1 1 1
v -0.03955019 -0.34862569 -0.62796617 1 1 1
v -0.02173604 -0.35791957 -0.62962133 1 1 1
v -0.00505588 -0.34523883 -0.62911028 1 1 1
v -0.01040014 -0.34245068 -0.62861371 1 1 1
v -0.01119394 -0.32706851 -0.62709737 1 1 1
v -0.02366382 -0.32056284 -0.62593877 1 1 1
v -0.03533994 -0.32943937 -0.62629652 1 1 1
v -0.03454614 -0.34482148 -0.62781286 1 1 1
v -0.02207625 -0.35132721 -0.62897146 1 1 1
v -0.02287003 -0.33594501 -0.62745512 1 1 1
vn 0.083800405 0.032068349 0.995966374
vn 0.083771280 0.032072559 0.995968699
vn 0.937836170 -0.33567399 0.088240005
vn 0.814745187 0.578668057 0.036518834
vn 0.083800405 0.032068349 0.995966374
vn -0.16209055 0.983662903 0.078320056
vn 0.945695698 -0.3250522 0.000737255
vn 0.794859588 0.590645730 -0.13905348
vn -0.1827731 0.970046639 -0.16001107
vn 0.083800405 0.032068349 0.995966374
vn 0.083800405 0.032068349 0.995966374
vn 0.083800405 0.032068349 0.995966374
vn 0.181002318 -0.96374482 0.196046188
vn 0.174730762 -0.97516054 0.136129260
vn 0.967650175 -0.20482093 0.147314772
vn 0.760048210 0.528545618 -0.37810877
vn 0.176141187 -0.8396945 0.513699710
vn -0.16984467 0.777774751 -0.60516047
vn -0.90793616 0.314796984 -0.27668542
vn -0.92982244 0.367398679 -0.02117686
vn -0.91853529 0.360659241 0.161919146
vn 0.083800405 0.032068349 0.995966374
vn -0.80153829 -0.5535537 0.226085707
vn -0.82966989 -0.54463947 0.122538477
vn -0.86667454 -0.43536112 0.243589595
vn 0.107118643 -0.21746364 0.970172703
vn 0.937368691 -0.00307198 0.348325341
vn -0.87198323 -0.17913698 0.455582141
vn 0.775998711 0.266881853 -0.57148927
vn -0.10657068 0.329279810 -0.9381991
vn -0.87345499 0.102379158 -0.47601986
vn -0.847417 -0.03800533 0.529565930
vn 0.072054237 0.027967272 0.997008562
vn -0.88620335 -0.05987726 -0.45941091
vn 0.905825793 0.064212828 0.418755829
vn 0.827378988 0.042055334 -0.5600673
vn -0.06293729 -0.01791372 -0.99785674
vn -0.89358824 -0.0780101 -0.44205698
vn -0.84207261 0.010421578 0.539263546
vn -0.05879227 -0.08946508 -0.99425322
vn 0.062629103 0.090212859 0.993951320
vn 0.896875321 0.077813997 0.435384482
vn 0.840027153 -0.01033481 -0.54244596
vn -0.0611239 -0.07548377 -0.99527186
vn -0.89793646 -0.06373426 -0.43548599
vn 0.844108462 -0.0097399 -0.536084
vn -0.83811271 0.010232805 0.545401036
vn 0.062391340 0.074667267 0.995254814
vn 0.893624305 0.063837699 0.444252431
vn 0.889413535 0.016551179 0.456803649
vn 0.848910927 0.030598184 -0.52764952
vn -0.06788192 0.009653893 -0.99764663
vn -0.90505493 -0.02112755 -0.42476961
vn -0.82914943 -0.03443188 0.557965695
vn 0.067930705 -0.01732652 0.997539579
vn 0.879395842 -0.11397704 0.462246894
vn 0.867295742 0.127597540 -0.48116216
vn 0.081998296 -0.2704322 0.959240734
vn -0.08271088 0.218375712 -0.97235334
vn -0.9248991 0.064953066 -0.3746236
vn -0.80758262 -0.17538926 0.563071012
vn 0.100508205 -0.68918371 0.717581927
vn 0.878811955 -0.32996789 0.344689220
vn -0.79768783 -0.41830701 0.434411466
vn 0.894606292 0.309682101 -0.32214352
vn -0.1081176 0.687462389 -0.71812677
vn -0.94945997 0.216411709 -0.22735815
vn -0.81973541 -0.54568845 0.173947855
vn 0.103149168 -0.95554423 0.276216208
vn -0.9388656 0.338832795 -0.06102329
vn 0.892592430 -0.43703705 0.110803484
vn 0.883913457 0.450747638 -0.12459304
vn -0.10718088 0.968016326 -0.22684078
vn -0.92195958 0.385995119 0.031596511
vn -0.84357339 -0.53667998 0.018937861
vn -0.09803855 0.994977176 0.020220775
vn 0.096717536 -0.99527282 -0.00882175
vn 0.904829978 -0.42494178 -0.02659278
vn 0.866594016 0.498805075 -0.01443175
vn -0.10061512 0.990801334 -0.09049445
vn -0.90843284 0.405844420 -0.10020011
vn 0.842584252 0.518103838 -0.14703828
vn -0.84606481 -0.50093067 -0.18232581
vn 0.085649132 -0.96271753 -0.2565915
vn 0.893157422 -0.39333761 -0.21807219
vn -0.04236704 0.095853522 -0.99449348
vn -0.04236704 0.095853522 -0.99449348
vn -0.04236704 0.095853522 -0.99449348
vn -0.04236704 0.095853522 -0.99449348
vn -0.04236704 0.095853522 -0.99449348
vn -0.04236704 0.095853522 -0.99449348
vn -0.04236704 0.095853522 -0.99449348
s 0
f 1//1 2//2 3//3 4//4
f 5//5 1//1 4//4 6//6
f 3//3 7//7 8//8 4//4
f 4//4 8//8 9//9 6//6
f 2//2 1//1 10//10 11//11
f 5//5 12//12 10//10 1//1
f 2//2 11//11 13//13 3//3
f 13//13 14//14 7//7 3//3
f 7//7 15//15 16//16 8//8
f 14//14 17//17 15//15 7//7
f 8//8 16//16 18//18 9//9
f 9//9 18//18 19//19 20//20
f 6//6 9//9 20//20 21//21
f 12//12 5//5 6//6 21//21
f 22//22 11//11 10//10 12//12
f 22//22 12//12 21//21 23//23
f 11//11 22//22 23//23 13//13
f 23//23 24//24 14//14 13//13
f 24//24 25//25 17//17 14//14
f 17//17 26//26 27//27 15//15
f 25//25 28//28 26//26 17//17
f 15//15 27//27 29//29 16//16
f 16//16 29//29 30//30 18//18
f 18//18 30//30 31//31 19//19
f 19//19 31//31 28//28 25//25
f 20//20 19//19 25//25 24//24
f 21//21 20//20 24//24 23//23
f 28//28 32//32 33//33 26//26
f 31//31 34//34 32//32 28//28
f 26//26 33//33 35//35 27//27
f 27//27 35//35 36//36 29//29
f 29//29 36//36 37//37 30//30
f 30//30 37//37 34//34 31//31
f 34//34 38//38 39//39 32//32
f 37//37 40//40 38//38 34//34
f 32//32 39//39 41//41 33//33
f 33//33 41//41 42//42 35//35
f 35//35 42//42 43//43 36//36
f 36//36 43//43 40//40 37//37
f 40//40 44//44 45//45 38//38
f 43//43 46//46 44//44 40//40
f 38//38 45//45 47//47 39//39
f 39//39 47//47 48//48 41//41
f 41//41 48//48 49//49 42//42
f 42//42 49//49 46//46 43//43
f 49//49 50//50 51//51 46//46
f 46//46 51//51 52//52 44//44
f 44//44 52//52 53//53 45//45
f 45//45 53//53 54//54 47//47
f 47//47 54//54 55//55 48//48
f 48//48 55//55 50//50 49//49
f 50//50 56//56 57//57 51//51
f 55//55 58//58 56//56 50//50
f 51//51 57//57 59//59 52//52
f 52//52 59//59 60//60 53//53
f 53//53 60//60 61//61 54//54
f 54//54 61//61 58//58 55//55
f 58//58 62//62 63//63 56//56
f 61//61 64//64 62//62 58//58
f 56//56 63//63 65//65 57//57
f 57//57 65//65 66//66 59//59
f 59//59 66//66 67//67 60//60
f 60//60 67//67 64//64 61//61
f 64//64 68//68 69//69 62//62
f 67//67 70//70 68//68 64//64
f 62//62 69//69 71//71 63//63
f 63//63 71//71 72//72 65//65
f 65//65 72//72 73//73 66//66
f 66//66 73//73 70//70 67//67
f 70//70 74//74 75//75 68//68
f 73//73 76//76 74//74 70//70
f 68//68 75//75 77//77 69//69
f 69//69 77//77 78//78 71//71
f 71//71 78//78 79//79 72//72
f 72//72 79//79 76//76 73//73
f 76//76 80//80 81//81 74//74
f 79//79 82//82 80//80 76//76
f 74//74 81//81 83//83 75//75
f 75//75 83//83 84//84 77//77
f 77//77 84//84 85//85 78//78
f 78//78 85//85 82//82 79//79
f 85//85 86//86 87//87 82//82
f 82//82 87//87 88//88 80//80
f 80//80 88//88 89//89 81//81
f 81//81 89//89 90//90 83//83
f 83//83 90//90 91//91 84//84
f 84//84 91//91 86//86 85//85
f 92//92 87//87 86//86 91//91
f 92//92 89//89 88//88 87//87
f 90//90 89//89 92//92 91//91
