# Exported from Nomad Sculpt
o pin
usemtl mat0_pin
v 0.004475377 0.144277662 0 1 1 1
v 0.003875790 0.144277662 0.002237688 1 1 1
v 0.002237688 0.144277662 0.003875791 1 1 1
v -0 0.144277662 0.004475377 1 1 1
v -0.00223769 0.144277662 0.003875790 1 1 1
v -0.00387579 0.144277662 0.002237689 1 1 1
v -0.00447538 0.144277662 -0 1 1 1
v -0.00387579 0.144277662 -0.00223769 1 1 1
v -0.00223769 0.144277662 -0.00387579 1 1 1
v 0.000000000 0.144277662 -0.00447538 1 1 1
v 0.002237688 0.144277662 -0.00387579 1 1 1
v 0.003875791 0.144277662 -0.00223769 1 1 1
v 0.008269418 0.156953156 0 1 1 1
v 0.007161526 0.156953156 0.004134709 1 1 1
v 0.004134708 0.156953156 0.007161526 1 1 1
v -0 0.156953156 0.008269418 1 1 1
v -0.00413471 0.156953156 0.007161526 1 1 1
v -0.00716153 0.156953156 0.004134709 1 1 1
v -0.00826942 0.156953156 -0 1 1 1
v -0.00716153 0.156953156 -0.00413471 1 1 1
v -0.00413471 0.156953156 -0.00716153 1 1 1
v 0.000000000 0.156953156 -0.00826942 1 1 1
v 0.004134708 0.156953156 -0.00716153 1 1 1
v 0.007161527 0.156953156 -0.00413471 1 1 1
v 0.010804516 0.175923362 0 1 1 1
v 0.009356985 0.175923362 0.005402258 1 1 1
v 0.005402258 0.175923362 0.009356985 1 1 1
v -0 0.175923362 0.010804516 1 1 1
v -0.00540226 0.175923362 0.009356985 1 1 1
v -0.00935699 0.175923362 0.005402258 1 1 1
v -0.01080452 0.175923362 -0 1 1 1
v -0.00935699 0.175923362 -0.00540226 1 1 1
v -0.00540226 0.175923362 -0.00935699 1 1 1
v 0.000000000 0.175923362 -0.01080452 1 1 1
v 0.005402257 0.175923362 -0.00935699 1 1 1
v 0.009356986 0.175923362 -0.00540226 1 1 1
v 0.011694723 0.198300242 0 1 1 1
v 0.010127928 0.198300242 0.005847361 1 1 1
v 0.005847361 0.198300242 0.010127929 1 1 1
v -0 0.198300242 0.011694723 1 1 1
v -0.00584736 0.198300242 0.010127928 1 1 1
v -0.01012793 0.198300242 0.005847362 1 1 1
v -0.01169472 0.198300242 -0 1 1 1
v -0.01012793 0.198300242 -0.00584736 1 1 1
v -0.00584736 0.198300242 -0.01012793 1 1 1
v 0.000000000 0.198300242 -0.01169472 1 1 1
v 0.005847360 0.198300242 -0.01012793 1 1 1
v 0.010127930 0.198300242 -0.00584736 1 1 1
v 0.010804516 0.220677137 0 1 1 1
v 0.009356985 0.220677137 0.005402258 1 1 1
v 0.005402258 0.220677137 0.009356985 1 1 1
v -0 0.220677137 0.010804516 1 1 1
v -0.00540226 0.220677137 0.009356985 1 1 1
v -0.00935699 0.220677137 0.005402258 1 1 1
v -0.01080452 0.220677137 -0 1 1 1
v -0.00935699 0.220677137 -0.00540226 1 1 1
v -0.00540226 0.220677137 -0.00935699 1 1 1
v 0.000000000 0.220677137 -0.01080452 1 1 1
v 0.005402257 0.220677137 -0.00935699 1 1 1
v 0.009356986 0.220677137 -0.00540226 1 1 1
v 0.008269418 0.239647328 0 1 1 1
v 0.007161526 0.239647328 0.004134709 1 1 1
v 0.004134708 0.239647328 0.007161526 1 1 1
v -0 0.239647328 0.008269418 1 1 1
v -0.00413471 0.239647328 0.007161526 1 1 1
v -0.00716153 0.239647328 0.004134709 1 1 1
v -0.00826942 0.239647328 -0 1 1 1
v -0.00716153 0.239647328 -0.00413471 1 1 1
v -0.00413471 0.239647328 -0.00716153 1 1 1
v 0.000000000 0.239647328 -0.00826942 1 1 1
v 0.004134708 0.239647328 -0.00716153 1 1 1
v 0.007161527 0.239647328 -0.00413471 1 1 1
v 0.004475375 0.252322822 0 1 1 1
v 0.003875788 0.252322822 0.002237687 1 1 1
v 0.002237687 0.252322822 0.003875788 1 1 1
v -0 0.252322822 0.004475375 1 1 1
v -0.00223769 0.252322822 0.003875788 1 1 1
v -0.00387579 0.252322822 0.002237688 1 1 1
v -0.00447538 0.252322822 -0 1 1 1
v -0.00387579 0.252322822 -0.00223769 1 1 1
v -0.00223769 0.252322822 -0.00387579 1 1 1
v 0.000000000 0.252322822 -0.00447538 1 1 1
v 0.002237687 0.252322822 -0.00387579 1 1 1
v 0.003875789 0.252322822 -0.00223769 1 1 1
v 0 0.139826625 0 1 1 1
v 0 0.256773859 0 1 1 1
vn 0.935768663 -0.35261467 0
vn 0.810398638 -0.35261524 0.467885106
vn 0.467885106 -0.35261524 0.810398638
vn 0 -0.35261467 0.935768663
vn -0.46786126 -0.3526203 0.810410261
vn -0.81038815 -0.352624 0.467896699
vn -0.93576479 -0.35262471 0
vn -0.81039971 -0.35262904 -0.46787283
vn -0.46787283 -0.35262904 -0.81039971
vn 0 -0.35262471 -0.93576479
vn 0.467896699 -0.352624 -0.81038815
vn 0.810410261 -0.3526203 -0.46786126
vn 0.983358562 -0.18167506 0
vn 0.851613044 -0.18167542 0.491680204
vn 0.491680204 -0.18167542 0.851613044
vn 0 -0.18167506 0.983358562
vn -0.49165708 -0.18167812 0.851625740
vn -0.85160458 -0.18168013 0.491692960
vn -0.98335761 -0.18168053 0
vn -0.85161728 -0.18168283 -0.4916698
vn -0.49166986 -0.18168285 -0.8516174
vn 0 -0.18168053 -0.98335761
vn 0.491692960 -0.18168013 -0.85160458
vn 0.851625740 -0.18167812 -0.49165708
vn 0.996895313 -0.0787384 0
vn 0.863332212 -0.07873721 0.498455405
vn 0.498455405 -0.07873721 0.863332212
vn 0 -0.0787384 0.996895313
vn -0.49843252 -0.07873841 0.863345384
vn -0.86332452 -0.07873929 0.498468548
vn -0.99689513 -0.07874079 0
vn -0.8633377 -0.07874049 -0.49844566
vn -0.49844566 -0.07874049 -0.8633377
vn 0 -0.07874079 -0.99689513
vn 0.498468548 -0.07873929 -0.86332452
vn 0.863345384 -0.07873841 -0.49843252
vn 1 0 0
vn 0.866018354 0 0.500012099
vn 0.500012099 0 0.866018354
vn 0 0 1
vn -0.49998927 0 0.866031527
vn -0.86602396 0 0.500002503
vn -1 0 0
vn -0.86602396 0 -0.5000025
vn -0.5000025 0 -0.86602396
vn 0 0 -1
vn 0.500025391 0 -0.86601073
vn 0.866031646 0 -0.49998933
vn 0.996892988 0.078768745 0
vn 0.863330245 0.078767560 0.498454242
vn 0.498454242 0.078767560 0.863330245
vn 0 0.078768737 0.996892869
vn -0.4984313 0.078768752 0.863343298
vn -0.86332244 0.078769631 0.498467326
vn -0.99689281 0.078771136 0
vn -0.86333555 0.078770831 -0.49844444
vn -0.49844444 0.078770831 -0.86333555
vn 0 0.078771129 -0.99689269
vn 0.498467326 0.078769631 -0.86332244
vn 0.863343298 0.078768752 -0.4984313
vn 0.983353197 0.181704595 0
vn 0.851608276 0.181704908 0.491677492
vn 0.491677492 0.181704908 0.851608276
vn 0 0.181704595 0.983353197
vn -0.49165434 0.181707620 0.851620972
vn -0.85159987 0.181709632 0.491690218
vn -0.98335218 0.181710034 0
vn -0.85161257 0.181712329 -0.49166706
vn -0.49166712 0.181712359 -0.85161269
vn 0 0.181710034 -0.98335218
vn 0.491690218 0.181709632 -0.85159987
vn 0.851620972 0.181707620 -0.49165434
vn 0.935758531 0.352641373 0
vn 0.810389936 0.352641999 0.4678801
vn 0.4678801 0.352641999 0.810389936
vn 0 0.352641373 0.935758531
vn -0.46785623 0.352647006 0.810401499
vn -0.81037945 0.352650702 0.467891663
vn -0.93575484 0.352651447 0
vn -0.81039107 0.352655768 -0.46786782
vn -0.46786782 0.352655768 -0.81039107
vn 0 0.352651447 -0.93575484
vn 0.467891663 0.352650702 -0.81037945
vn 0.810401499 0.352647006 -0.46785623
vn 0 -1 0
vn 0 1 0
s 0
f 1//1 13//13 14//14 2//2
f 2//2 14//14 15//15 3//3
f 3//3 15//15 16//16 4//4
f 4//4 16//16 17//17 5//5
f 5//5 17//17 18//18 6//6
f 6//6 18//18 19//19 7//7
f 7//7 19//19 20//20 8//8
f 8//8 20//20 21//21 9//9
f 9//9 21//21 22//22 10//10
f 10//10 22//22 23//23 11//11
f 11//11 23//23 24//24 12//12
f 12//12 24//24 13//13 1//1
f 13//13 25//25 26//26 14//14
f 14//14 26//26 27//27 15//15
f 15//15 27//27 28//28 16//16
f 16//16 28//28 29//29 17//17
f 17//17 29//29 30//30 18//18
f 18//18 30//30 31//31 19//19
f 19//19 31//31 32//32 20//20
f 20//20 32//32 33//33 21//21
f 21//21 33//33 34//34 22//22
f 22//22 34//34 35//35 23//23
f 23//23 35//35 36//36 24//24
f 24//24 36//36 25//25 13//13
f 25//25 37//37 38//38 26//26
f 26//26 38//38 39//39 27//27
f 27//27 39//39 40//40 28//28
f 28//28 40//40 41//41 29//29
f 29//29 41//41 42//42 30//30
f 30//30 42//42 43//43 31//31
f 31//31 43//43 44//44 32//32
f 32//32 44//44 45//45 33//33
f 33//33 45//45 46//46 34//34
f 34//34 46//46 47//47 35//35
f 35//35 47//47 48//48 36//36
f 36//36 48//48 37//37 25//25
f 37//37 49//49 50//50 38//38
f 38//38 50//50 51//51 39//39
f 39//39 51//51 52//52 40//40
f 40//40 52//52 53//53 41//41
f 41//41 53//53 54//54 42//42
f 42//42 54//54 55//55 43//43
f 43//43 55//55 56//56 44//44
f 44//44 56//56 57//57 45//45
f 45//45 57//57 58//58 46//46
f 46//46 58//58 59//59 47//47
f 47//47 59//59 60//60 48//48
f 48//48 60//60 49//49 37//37
f 49//49 61//61 62//62 50//50
f 50//50 62//62 63//63 51//51
f 51//51 63//63 64//64 52//52
f 52//52 64//64 65//65 53//53
f 53//53 65//65 66//66 54//54
f 54//54 66//66 67//67 55//55
f 55//55 67//67 68//68 56//56
f 56//56 68//68 69//69 57//57
f 57//57 69//69 70//70 58//58
f 58//58 70//70 71//71 59//59
f 59//59 71//71 72//72 60//60
f 60//60 72//72 61//61 49//49
f 61//61 73//73 74//74 62//62
f 62//62 74//74 75//75 63//63
f 63//63 75//75 76//76 64//64
f 64//64 76//76 77//77 65//65
f 65//65 77//77 78//78 66//66
f 66//66 78//78 79//79 67//67
f 67//67 79//79 80//80 68//68
f 68//68 80//80 81//81 69//69
f 69//69 81//81 82//82 70//70
f 70//70 82//82 83//83 71//71
f 71//71 83//83 84//84 72//72
f 72//72 84//84 73//73 61//61
f 85//85 1//1 2//2
f 85//85 2//2 3//3
f 85//85 3//3 4//4
f 85//85 4//4 5//5
f 85//85 5//5 6//6
f 85//85 6//6 7//7
f 85//85 7//7 8//8
f 85//85 8//8 9//9
f 85//85 9//9 10//10
f 85//85 10//10 11//11
f 85//85 11//11 12//12
f 85//85 12//12 1//1
f 86//86 74//74 73//73
f 86//86 75//75 74//74
f 86//86 76//76 75//75
f 86//86 77//77 76//76
f 86//86 78//78 77//77
f 86//86 79//79 78//78
f 86//86 80//80 79//79
f 86//86 81//81 80//80
f 86//86 82//82 81//81
f 86//86 83//83 82//82
f 86//86 84//84 83//83
f 86//86 73//73 84//84
