# Blender 3.6.0
# www.blender.org
mtllib SchoonerTopRigForeSail.mtl
o SchoonerSails1.001_Circle.009
v 0.000000 0.857494 0.287989
v 0.000000 0.366591 0.057524
v 0.000000 0.726955 -0.281747
v 0.000000 1.343297 0.233133
v 0.000000 1.121915 -0.301061
v 0.000000 0.321650 -0.301061
v 0.000000 0.367472 0.410222
v 0.000000 1.213115 -0.021475
v 0.000000 0.367472 0.410222
v 0.000000 0.321650 -0.301061
v 0.000000 1.121915 -0.301061
v 0.000000 1.213115 -0.021475
v 0.000000 0.726955 -0.281747
v 0.000000 0.366591 0.057524
v 0.000000 0.857494 0.287989
v -0.172194 0.786519 0.014691
v 0.000000 1.343297 0.233133
v -0.119427 0.985385 -0.213403
v -0.119427 0.756737 -0.133528
v -0.119427 0.822006 0.151340
v -0.151409 1.019545 -0.003392
v -0.167299 0.514554 0.036107
v -0.119427 0.439371 -0.161784
v -0.119427 0.489905 0.228627
v -0.119183 1.084411 0.142207
v -0.119183 1.084411 0.142207
v -0.119427 0.489905 0.228627
v -0.119427 0.439371 -0.161784
v -0.167299 0.514554 0.036107
v -0.151409 1.019545 -0.003392
v -0.119427 0.822006 0.151340
v -0.119427 0.756737 -0.133528
v -0.119427 0.985385 -0.213403
v -0.172194 0.786519 0.014691
vn -0.7752 0.1529 0.6129
vn -0.6401 -0.7624 0.0955
vn -0.8669 -0.1644 -0.4705
vn -0.8482 0.0192 0.5294
vn -0.7078 0.0793 0.7020
vn -0.8537 0.1180 0.5072
vn -0.7453 0.0317 -0.6659
vn 0.9149 -0.3526 0.1967
vn 0.7171 0.6969 -0.0017
vn -0.5608 -0.0404 -0.8270
vn -0.9256 0.3767 0.0370
vn 0.8460 -0.4747 0.2427
vn 0.9161 0.3571 -0.1821
vn 0.8598 -0.0453 0.5086
vn 0.7453 -0.0317 0.6659
vn 0.9256 -0.3767 -0.0370
vn 0.8537 -0.1180 -0.5072
vn 0.8669 0.1644 0.4705
vn 0.7752 -0.1529 -0.6129
vn -0.9161 -0.3571 0.1821
vn -0.8598 0.0453 -0.5086
vn -0.7959 0.5756 -0.1878
vn -0.8460 0.4747 -0.2427
vn -0.9198 -0.3849 -0.0763
vn -0.7171 -0.6969 0.0017
vn -0.9149 0.3526 -0.1967
vn 0.9198 0.3849 0.0763
vn 0.7959 -0.5756 0.1878
vn 0.5608 0.0404 0.8270
vn 0.8482 -0.0192 -0.5294
vn 0.7078 -0.0793 -0.7020
vn 0.6401 0.7624 -0.0955
vt 0.314142 0.438599
vt 0.323030 0.664929
vt 0.364853 0.558642
vt 0.506170 0.437971
vt 0.408304 0.448220
vt 0.449356 0.545693
vt 0.481388 0.621750
vt 0.440393 0.631083
vt 0.399398 0.640416
vt 0.435726 0.726678
vt 0.358761 0.758152
vt 0.361214 0.652673
vt 0.314142 0.887425
vt 0.393893 0.737936
vt 0.388389 0.835455
vt 0.467415 0.801923
vt 0.403851 0.544318
s 0
usemtl None.043
f 7/1/1 15/2/1 24/3/1
f 6/4/2 14/5/2 23/6/2
f 13/7/3 19/8/3 16/9/3 18/10/3
f 25/11/4 16/9/4 20/12/4 15/2/4
f 15/2/5 4/13/5 25/11/5
f 20/12/6 16/9/6 24/3/6 15/2/6
f 13/7/7 6/4/7 23/6/7
f 30/14/8 34/9/8 33/10/8 8/15/8
f 2/5/9 27/3/9 9/1/9
f 5/16/10 13/7/10 18/10/10
f 12/15/11 21/14/11 16/9/11 25/11/11
f 17/13/12 26/11/12 8/15/12
f 34/9/13 27/3/13 2/5/13 29/17/13
f 34/9/14 28/6/14 3/7/14 32/8/14
f 3/7/15 28/6/15 10/4/15
f 8/15/16 26/11/16 34/9/16 30/14/16
f 31/12/17 1/2/17 27/3/17 34/9/17
f 3/7/18 33/10/18 34/9/18 32/8/18
f 9/1/19 27/3/19 1/2/19
f 16/9/20 22/17/20 14/5/20 24/3/20
f 16/9/21 19/8/21 13/7/21 23/6/21
f 12/15/22 5/16/22 18/10/22
f 4/13/23 12/15/23 25/11/23
f 14/5/24 22/17/24 16/9/24 23/6/24
f 14/5/25 7/1/25 24/3/25
f 21/14/26 12/15/26 18/10/26 16/9/26
f 2/5/27 28/6/27 34/9/27 29/17/27
f 8/15/28 33/10/28 11/16/28
f 11/16/29 33/10/29 3/7/29
f 26/11/30 1/2/30 31/12/30 34/9/30
f 1/2/31 26/11/31 17/13/31
f 10/4/32 28/6/32 2/5/32
