# Blender 3.6.0
# www.blender.org
mtllib SchoonerTopRigForeMastTopSail.mtl
o SchoonerSails1.001_Circle.009
v -0.186549 1.679382 -0.493284
v 0.186549 1.679382 -0.493284
v 0.327851 1.471206 -0.493284
v -0.166164 1.855757 -0.493284
v -0.259785 1.445035 -0.493284
v 0.000000 1.476392 -0.529603
v 0.000000 1.866298 -0.513527
v 0.166164 1.855757 -0.493284
v 0.000000 1.679382 -0.530597
v 0.373099 1.679382 -0.398475
v -0.373099 1.679382 -0.398475
v 0.000000 1.997381 -0.398475
v 0.000000 1.386626 -0.398475
v 0.308912 2.007277 -0.398475
v -0.308912 2.007277 -0.398475
v 0.466162 1.351487 -0.398475
v -0.466162 1.351487 -0.398475
v 0.166164 1.855757 -0.493284
v 0.000000 1.866298 -0.513527
v 0.000000 1.476392 -0.529603
v -0.259785 1.445035 -0.493284
v -0.466162 1.351487 -0.398475
v 0.466162 1.351487 -0.398475
v -0.308912 2.007277 -0.398475
v 0.308912 2.007277 -0.398475
v 0.000000 1.386626 -0.398475
v 0.000000 1.997381 -0.398475
v -0.373099 1.679382 -0.398475
v 0.373099 1.679382 -0.398475
v 0.000000 1.679382 -0.530597
v -0.166164 1.855757 -0.493284
v 0.327851 1.471206 -0.493284
v 0.186549 1.679382 -0.493284
v -0.186549 1.679382 -0.493284
vn 0.6606 0.1875 -0.7270
vn 0.0174 0.5421 -0.8402
vn -0.3336 0.0386 -0.9419
vn 0.1356 0.3801 -0.9149
vn -0.4797 -0.0939 0.8724
vn 0.4797 -0.0939 0.8724
vn 0.0493 0.6545 0.7545
vn -0.0581 0.7710 0.6342
vn 0.3320 -0.1038 0.9376
vn 0.0174 -0.5421 0.8402
vn 0.0775 0.4101 0.9087
vn -0.0174 0.5421 -0.8402
vn -0.1356 0.3801 -0.9149
vn -0.0775 -0.4101 -0.9087
vn 0.3256 0.2210 -0.9193
vn -0.0174 -0.5421 0.8402
vn -0.1356 -0.3801 0.9149
vn -0.3320 0.1038 -0.9376
vn -0.6606 -0.1875 0.7270
vn 0.0940 -0.4095 -0.9074
vn 0.0581 -0.7710 -0.6342
vn 0.4797 0.0939 -0.8724
vn -0.3336 -0.0386 0.9419
vn 0.4623 -0.1312 0.8769
vn -0.0940 0.4095 0.9074
vn -0.3256 -0.2210 0.9193
vn 0.1356 -0.3801 0.9149
vn 0.3336 0.0386 -0.9419
vn -0.4797 0.0939 -0.8724
vn -0.4623 0.1312 -0.8769
vn -0.0493 -0.6545 -0.7545
vn 0.3336 -0.0386 0.9419
vt 0.225592 0.712300
vt 0.250567 0.562334
vt 0.178263 0.649009
vt 0.042566 0.862266
vt 0.125466 0.857740
vt 0.080874 0.792967
vt 0.125466 0.712300
vt 0.075404 0.712300
vt 0.025341 0.712300
vt 0.125466 0.785020
vt 0.170058 0.792967
vt 0.208367 0.862266
vt 0.125466 0.578405
vt 0.072669 0.649009
vt 0.000366 0.562334
vt 0.125466 0.645352
vt 0.175529 0.712300
s 0
usemtl None.043
f 29/1/1 23/2/1 3/3/1
f 24/4/2 27/5/2 4/6/2
f 30/7/3 1/8/3 28/9/3 4/6/3
f 30/7/4 7/10/4 27/5/4 8/11/4
f 14/12/5 18/11/5 10/1/5
f 11/9/6 31/6/6 15/4/6
f 16/2/7 32/3/7 13/13/7
f 13/13/8 21/14/8 17/15/8
f 11/9/9 21/14/9 9/7/9 34/8/9
f 12/5/10 18/11/10 14/12/10
f 9/7/11 21/14/11 13/13/11 20/16/11
f 27/5/12 25/12/12 8/11/12
f 27/5/13 7/10/13 30/7/13 4/6/13
f 30/7/14 6/16/14 26/13/14 5/14/14
f 3/3/15 30/7/15 2/17/15 29/1/15
f 15/4/16 31/6/16 12/5/16
f 9/7/17 18/11/17 12/5/17 19/10/17
f 28/9/18 1/8/18 30/7/18 5/14/18
f 10/1/19 32/3/19 16/2/19
f 26/13/20 6/16/20 30/7/20 3/3/20
f 26/13/21 22/15/21 5/14/21
f 25/12/22 29/1/22 8/11/22
f 10/1/23 18/11/23 9/7/23 33/17/23
f 17/15/24 21/14/24 11/9/24
f 13/13/25 32/3/25 9/7/25 20/16/25
f 32/3/26 10/1/26 33/17/26 9/7/26
f 12/5/27 31/6/27 9/7/27 19/10/27
f 29/1/28 2/17/28 30/7/28 8/11/28
f 28/9/29 24/4/29 4/6/29
f 22/15/30 28/9/30 5/14/30
f 23/2/31 26/13/31 3/3/31
f 9/7/32 31/6/32 11/9/32 34/8/32
