# Blender 3.6.0
# www.blender.org
mtllib FrigateForeMast.mtl
o ShipSails0.001_Plane.006
v -0.454815 2.556625 -0.029854
v 0.454814 2.570284 -0.053512
v 0.454814 2.583944 -0.029854
v 0.454814 2.556625 -0.029854
v -0.454815 2.570284 -0.053512
v -0.454815 2.583944 -0.029854
v -0.724825 1.886817 -0.029854
v 0.724824 1.900476 -0.053512
v 0.724824 1.914135 -0.029854
v 0.724824 1.886817 -0.029854
v -0.724825 1.900476 -0.053512
v -0.724825 1.914135 -0.029854
v -0.901933 0.981290 -0.029854
v 0.901933 0.994950 -0.053512
v 0.901933 1.008609 -0.029854
v 0.901933 0.981290 -0.029854
v -0.901933 0.994950 -0.053512
v -0.901933 1.008609 -0.029854
v 0.000000 1.389802 -0.018271
v -0.018212 1.389802 0.013273
v 0.018212 1.389802 0.013273
v 0.000000 2.787880 -0.018271
v -0.018212 2.787880 0.013273
v 0.018212 2.787880 0.013273
v 0.000000 -0.008276 -0.029854
v -0.028243 -0.008276 0.019064
v 0.028243 -0.008276 0.019064
v 0.000000 1.389802 -0.029854
v -0.028243 1.389802 0.019064
v 0.028243 1.389802 0.019064
vn -0.0000 0.8660 -0.5000
vn -0.0000 -0.0000 1.0000
vn 1.0000 -0.0000 -0.0000
vn -0.0000 -0.8660 -0.5000
vn -1.0000 -0.0000 -0.0000
vn 0.8660 -0.0000 -0.5000
vn -0.8660 -0.0000 -0.5000
vn -0.0000 1.0000 -0.0000
vt 0.709382 0.901149
vt 0.903639 0.901216
vt 0.903637 0.907049
vt 0.709384 0.895315
vt 0.903641 0.895382
vt 0.277689 0.285740
vt 0.277689 0.279907
vt 0.282741 0.282823
vt 0.709386 0.889481
vt 0.903643 0.889549
vt 0.286452 0.257487
vt 0.281399 0.254570
vt 0.286452 0.251653
vt 0.000430 0.865759
vt 0.309977 0.865762
vt 0.309977 0.871598
vt 0.000430 0.859925
vt 0.309977 0.859928
vt 0.287311 0.257951
vt 0.287311 0.252118
vt 0.292363 0.255034
vt 0.000430 0.854092
vt 0.309977 0.854092
vt 0.292363 0.251258
vt 0.287311 0.248341
vt 0.292363 0.245424
vt 0.349670 0.883578
vt 0.708492 0.883578
vt 0.708477 0.889841
vt 0.349684 0.877316
vt 0.708506 0.877315
vt 0.289513 0.279047
vt 0.289513 0.273213
vt 0.294565 0.276130
vt 0.349698 0.871052
vt 0.708521 0.871052
vt 0.292363 0.244565
vt 0.287311 0.241648
vt 0.292363 0.238731
vt 0.898601 0.498650
vt 0.898601 0.797218
vt 0.890823 0.797218
vt 0.890822 0.498650
vt 0.883045 0.797218
vt 0.883043 0.498650
vt 0.875267 0.797219
vt 0.270093 0.264575
vt 0.276830 0.268464
vt 0.270093 0.272354
vt 0.806367 0.317810
vt 0.806367 0.616373
vt 0.794304 0.616374
vt 0.794304 0.317810
vt 0.782242 0.616374
vt 0.782241 0.317810
vt 0.770179 0.616374
vt 0.270093 0.251653
vt 0.280540 0.257684
vt 0.270093 0.263716
vt 0.709380 0.906983
vt 0.000430 0.871592
vt 0.349655 0.889841
vt 0.875265 0.498650
vt 0.770178 0.317810
s 0
usemtl None.057
f 6/1/1 3/2/1 2/3/1
f 1/4/2 4/5/2 3/2/2
f 3/6/3 4/7/3 2/8/3
f 5/9/4 2/10/4 4/5/4
f 6/11/5 5/12/5 1/13/5
f 12/14/1 9/15/1 8/16/1
f 7/17/2 10/18/2 9/15/2
f 9/19/3 10/20/3 8/21/3
f 11/22/4 8/23/4 10/18/4
f 12/24/5 11/25/5 7/26/5
f 18/27/1 15/28/1 14/29/1
f 13/30/2 16/31/2 15/28/2
f 15/32/3 16/33/3 14/34/3
f 17/35/4 14/36/4 16/31/4
f 18/37/5 17/38/5 13/39/5
f 19/40/6 22/41/6 24/42/6
f 21/43/2 24/42/2 23/44/2
f 20/45/7 23/44/7 22/46/7
f 23/47/8 24/48/8 22/49/8
f 25/50/6 28/51/6 30/52/6
f 27/53/2 30/52/2 29/54/2
f 26/55/7 29/54/7 28/56/7
f 29/57/8 30/58/8 28/59/8
f 5/60/1 6/1/1 2/3/1
f 6/1/2 1/4/2 3/2/2
f 1/4/4 5/9/4 4/5/4
f 11/61/1 12/14/1 8/16/1
f 12/14/2 7/17/2 9/15/2
f 7/17/4 11/22/4 10/18/4
f 17/62/1 18/27/1 14/29/1
f 18/27/2 13/30/2 15/28/2
f 13/30/4 17/35/4 16/31/4
f 21/43/6 19/40/6 24/42/6
f 20/45/2 21/43/2 23/44/2
f 19/63/7 20/45/7 22/46/7
f 27/53/6 25/50/6 30/52/6
f 26/55/2 27/53/2 29/54/2
f 25/64/7 26/55/7 28/56/7
