# Blender 3.6.0
# www.blender.org
mtllib SchoonerHeadSail.mtl
o SchoonerSails0.001_Circle.011
v -0.010000 2.002831 -0.434758
v -0.010000 0.657835 -0.766337
v -0.010000 0.350270 -1.650745
v -0.010000 1.306418 -0.626173
v -0.010000 0.540624 -1.189659
v -0.010000 1.163893 -1.036006
v -0.160621 1.235155 -0.831089
v -0.160621 0.887890 -1.010374
v -0.160621 0.845454 -0.965359
v -0.160621 0.788721 -1.128496
v -0.144122 0.714257 -1.100017
v -0.010000 2.002831 -0.434758
v -0.010000 0.657835 -0.766337
v -0.010000 0.350270 -1.650745
v -0.010000 1.306418 -0.626173
v -0.010000 0.540624 -1.189659
v -0.010000 1.163893 -1.036006
v -0.160621 1.235155 -0.831089
v -0.160621 0.887890 -1.010374
v -0.160621 0.845454 -0.965359
v -0.160621 0.788721 -1.128496
v -0.144122 0.714257 -1.100017
vn 0.9694 -0.2318 0.0806
vn 0.8072 0.5456 -0.2252
vn 0.7216 0.5379 -0.4357
vn 0.8408 0.5217 -0.1445
vn 0.9313 0.2904 0.2198
vn 0.8332 0.1802 -0.5229
vn 0.8410 0.1143 -0.5288
vn 0.7567 -0.3624 0.5441
vn 0.7112 -0.4238 0.5609
vn -0.9694 0.2318 -0.0806
vn -0.8072 -0.5456 0.2252
vn -0.7216 -0.5379 0.4357
vn -0.8408 -0.5217 0.1445
vn -0.9313 -0.2904 -0.2198
vn -0.8332 -0.1802 0.5229
vn -0.8410 -0.1143 0.5288
vn -0.7567 0.3624 -0.5441
vn -0.7112 0.4238 -0.5609
vt 0.698668 0.812710
vt 0.620615 0.504038
vt 0.657690 0.452996
vt 0.694764 0.401955
vt 0.650131 0.236783
vt 0.620615 0.127556
vt 0.698668 0.000274
vt 0.639152 0.290276
vt 0.620615 0.277417
vt 0.629884 0.208916
vt 0.538658 0.220565
s 0
usemtl None.029
f 1/1/1 4/2/1 7/3/1 6/4/1
f 10/5/2 5/6/2 3/7/2
f 8/8/3 9/9/3 5/6/3 11/10/3
f 2/11/4 5/6/4 9/9/4
f 10/5/5 8/8/5 11/10/5 5/6/5
f 7/3/6 4/2/6 9/9/6 8/8/6
f 4/2/7 2/11/7 9/9/7
f 6/4/8 7/3/8 8/8/8 10/5/8
f 6/4/9 10/5/9 3/7/9
f 12/1/10 17/4/10 18/3/10 15/2/10
f 21/5/11 14/7/11 16/6/11
f 19/8/12 22/10/12 16/6/12 20/9/12
f 13/11/13 20/9/13 16/6/13
f 21/5/14 16/6/14 22/10/14 19/8/14
f 18/3/15 19/8/15 20/9/15 15/2/15
f 15/2/16 20/9/16 13/11/16
f 17/4/17 21/5/17 19/8/17 18/3/17
f 17/4/18 14/7/18 21/5/18
