# Blender 3.6.0
# www.blender.org
mtllib SchoonerForeMast.mtl
o SchoonerSails0.001_Circle.011
v 0.000000 0.013215 0.019450
v -0.017579 -0.017138 0.021847
v 0.017579 -0.017138 0.021847
v 0.000000 0.075216 0.804557
v -0.017579 0.044863 0.806954
v 0.017579 0.044863 0.806954
v 0.000000 1.361704 0.006221
v -0.017579 1.339911 0.027484
v 0.017579 1.339911 0.027484
v 0.000000 1.911697 0.569910
v -0.017579 1.889904 0.591173
v 0.017579 1.889904 0.591173
v 0.000000 0.021160 -0.026988
v -0.037538 0.021160 0.038029
v 0.037538 0.021160 0.038029
v 0.000000 0.852584 -0.007607
v -0.037538 0.852584 0.038029
v 0.037538 0.852584 0.038029
v 0.000000 0.852584 -0.026988
v 0.020753 0.852584 0.028338
v -0.020753 0.852584 0.028338
v 0.000000 1.794117 -0.007607
v 0.020753 1.794117 0.028338
v -0.020753 1.794117 0.028338
vn 0.8660 0.4985 -0.0394
vn -0.0000 -0.9969 0.0787
vn -0.8660 0.4985 -0.0394
vn 0.8660 0.3579 -0.3492
vn -0.0000 -0.7157 0.6984
vn -0.8660 0.3579 -0.3492
vn 0.8660 -0.0000 -0.5000
vn -0.0000 -0.0000 1.0000
vn -0.8660 -0.0000 -0.5000
vn -0.0000 1.0000 -0.0000
vn -0.0000 0.6983 0.7158
vn -0.0000 0.0787 0.9969
vt 0.487673 0.851437
vt 0.488872 0.837003
vt 0.698668 0.837003
vt 0.488872 0.827692
vt 0.698668 0.827692
vt 0.487673 0.813259
vt 0.697470 0.813258
vt 0.730398 0.693866
vt 0.730398 0.983541
vt 0.719464 0.978015
vt 0.710153 0.978015
vt 0.710152 0.688339
vt 0.699217 0.983542
vt 0.699217 0.693866
vt 0.968523 0.552220
vt 0.968523 0.977179
vt 0.957531 0.977179
vt 0.915113 0.487738
vt 0.915113 0.863000
vt 0.895230 0.863000
vt 0.946539 0.552220
vt 0.946538 0.977179
vt 0.935546 0.977179
vt 0.957531 0.552220
vt 0.748714 0.688339
vt 0.758234 0.693835
vt 0.748714 0.699332
vt 0.934996 0.487738
vt 0.934996 0.863000
vt 0.895230 0.487738
vt 0.875347 0.863000
vt 0.730947 0.708771
vt 0.748166 0.718712
vt 0.730947 0.728653
vt 0.740806 0.746977
vt 0.749419 0.743439
vt 0.749419 0.755692
vt 0.730947 0.729205
vt 0.740258 0.729202
vt 0.735607 0.742918
vt 0.697470 0.851437
vt 0.719463 0.688339
vt 0.935547 0.552220
vt 0.875347 0.487738
s 0
usemtl None.027
f 4/1/1 6/2/1 3/3/1
f 6/2/2 5/4/2 2/5/2
f 5/4/3 4/6/3 1/7/3
f 7/8/4 10/9/4 12/10/4
f 12/10/5 11/11/5 8/12/5
f 11/11/6 10/13/6 7/14/6
f 16/15/7 22/16/7 23/17/7
f 15/18/8 18/19/8 17/20/8
f 21/21/9 24/22/9 22/23/9
f 20/24/8 23/17/8 24/22/8
f 24/25/10 23/26/10 22/27/10
f 15/18/7 13/28/7 19/29/7
f 14/30/9 17/20/9 19/31/9
f 17/32/10 18/33/10 19/34/10
f 11/35/11 12/36/11 10/37/11
f 5/38/12 6/39/12 4/40/12
f 1/41/1 4/1/1 3/3/1
f 3/3/2 6/2/2 2/5/2
f 2/5/3 5/4/3 1/7/3
f 9/42/4 7/8/4 12/10/4
f 9/42/5 12/10/5 8/12/5
f 8/12/6 11/11/6 7/14/6
f 20/24/7 16/15/7 23/17/7
f 14/30/8 15/18/8 17/20/8
f 16/43/9 21/21/9 22/23/9
f 21/21/8 20/24/8 24/22/8
f 18/19/7 15/18/7 19/29/7
f 13/44/9 14/30/9 19/31/9
