# Blender 3.6.0
# www.blender.org
mtllib CutterSquareSail.mtl
o SloopSails0.001_Circle.002
v 0.418213 0.292944 0.034996
v -0.418213 0.292944 0.034996
v 0.286128 1.119379 0.034997
v -0.286128 1.119379 0.034996
v 0.326257 0.706161 0.034996
v 0.000000 0.312853 0.034996
v -0.326257 0.706161 0.034996
v 0.000000 1.099469 0.034996
v 0.000000 0.706161 -0.099251
v -0.338533 0.358946 0.001191
v 0.349257 0.361115 0.001191
v 0.418213 0.292944 0.034996
v -0.418213 0.292944 0.034996
v 0.286128 1.119379 0.034997
v -0.286128 1.119379 0.034996
v 0.326257 0.706161 0.034996
v 0.000000 0.312853 0.034996
v -0.326257 0.706161 0.034996
v 0.000000 1.099469 0.034996
v 0.000000 0.706161 -0.099251
v -0.338533 0.358946 0.001191
v 0.349257 0.361115 0.001191
vn -0.3803 0.0369 -0.9241
vn -0.0225 0.3229 -0.9462
vn 0.3780 0.1152 -0.9186
vn -0.4590 0.1022 -0.8825
vn 0.0225 0.3229 -0.9462
vn 0.3803 0.0369 -0.9241
vn -0.0220 -0.4619 -0.8866
vn 0.0505 -0.3226 -0.9452
vn -0.3785 0.1029 -0.9199
vn 0.0227 -0.4773 -0.8784
vn -0.0469 -0.3227 -0.9453
vn 0.5284 0.1176 -0.8408
vn 0.3803 -0.0369 0.9241
vn 0.0225 -0.3229 0.9462
vn -0.3780 -0.1152 0.9186
vn 0.4590 -0.1022 0.8825
vn -0.0225 -0.3229 0.9462
vn -0.3803 -0.0369 0.9241
vn 0.0220 0.4619 0.8866
vn -0.0505 0.3226 0.9452
vn 0.3785 -0.1029 0.9199
vn -0.0227 0.4773 0.8784
vn 0.0469 0.3227 0.9453
vn -0.5284 -0.1176 0.8408
vt 0.344592 0.292084
vt 0.137374 0.292084
vt 0.162861 0.031140
vt 0.344592 0.043713
vt 0.526322 0.031140
vt 0.551810 0.292084
vt 0.458472 0.403959
vt 0.078969 0.553029
vt 0.230712 0.403959
vt 0.610214 0.553029
vt 0.344592 0.540456
s 0
usemtl None.008
f 9/1/1 7/2/1 4/3/1
f 9/1/2 8/4/2 3/5/2
f 9/1/3 5/6/3 11/7/3
f 2/8/4 7/2/4 10/9/4
f 8/4/5 9/1/5 4/3/5
f 5/6/6 9/1/6 3/5/6
f 1/10/7 6/11/7 11/7/7
f 9/1/8 6/11/8 10/9/8
f 7/2/9 9/1/9 10/9/9
f 6/11/10 2/8/10 10/9/10
f 6/11/11 9/1/11 11/7/11
f 5/6/12 1/10/12 11/7/12
f 20/1/13 15/3/13 18/2/13
f 20/1/14 14/5/14 19/4/14
f 20/1/15 22/7/15 16/6/15
f 13/8/16 21/9/16 18/2/16
f 19/4/17 15/3/17 20/1/17
f 16/6/18 14/5/18 20/1/18
f 12/10/19 22/7/19 17/11/19
f 20/1/20 21/9/20 17/11/20
f 18/2/21 21/9/21 20/1/21
f 17/11/22 21/9/22 13/8/22
f 17/11/23 22/7/23 20/1/23
f 16/6/24 22/7/24 12/10/24
