# Blender v3.6.0 OBJ File: ''
# www.blender.org
mtllib SloopHeadSail.mtl
o SloopSails1.001_Circle.012
v -0.027243 0.494515 -0.264324
v -0.010000 1.400617 0.007549
v -0.010000 0.355406 -1.009923
v -0.010000 0.475901 -0.615774
v -0.116704 0.920002 -0.493811
v -0.116704 0.935200 -0.170971
v -0.116704 0.935200 -0.170971
v -0.010000 0.475901 -0.615774
v -0.116704 0.920002 -0.493811
v -0.027243 0.494515 -0.264324
v -0.010000 1.400617 0.007549
v -0.010000 0.355406 -1.009923
v -0.116704 0.935200 -0.170971
v -0.116704 0.920002 -0.493811
v -0.010000 0.475901 -0.615774
v -0.010000 0.355406 -1.009923
v -0.010000 1.400617 0.007549
v -0.027243 0.494515 -0.264324
vt 0.742920 0.544804
vt 0.463287 0.638252
vt 0.395161 0.521334
vt 0.137339 0.628811
vt 0.000194 0.521334
vt 0.212597 0.755375
vt 0.395161 0.521334
vt 0.000194 0.521334
vt 0.137339 0.628811
vt 0.742920 0.544804
vt 0.463287 0.638252
vt 0.212597 0.755375
vt 0.395161 0.521334
vt 0.463287 0.638252
vt 0.137339 0.628811
vt 0.000194 0.521334
vt 0.742920 0.544804
vt 0.212597 0.755375
vn 0.9738 -0.2274 0.0107
vn 0.9644 0.2530 -0.0773
vn 0.9716 0.2365 -0.0111
vn 0.9808 0.1911 0.0380
vn -0.9644 -0.2530 0.0773
vn -0.9738 0.2274 -0.0107
vn -0.9716 -0.2365 0.0111
vn -0.9808 -0.1911 -0.0380
usemtl None.006
s off
f 2/1/1 6/2/1 5/3/1
f 5/3/2 4/4/2 3/5/2
f 5/3/3 6/2/3 4/4/3
f 6/2/4 1/6/4 4/4/4
f 9/7/5 12/8/5 8/9/5
f 11/10/6 9/7/6 7/11/6
f 9/7/7 8/9/7 7/11/7
f 7/11/8 8/9/8 10/12/8
f 14/13/3 13/14/3 15/15/3
f 14/13/2 15/15/2 16/16/2
f 17/17/1 13/14/1 14/13/1
f 13/14/4 18/18/4 15/15/4
