# Blender 3.6.0
# www.blender.org
mtllib BrigForeMast.mtl
o SchoonerSails2.001_Circle.007
v 0.000000 0.000457 -0.032775
v -0.037538 0.000457 0.032242
v 0.037538 0.000457 0.032242
v 0.000000 0.831882 -0.013394
v -0.037538 0.831882 0.032242
v 0.037538 0.831882 0.032242
v 0.000000 0.831882 -0.032775
v 0.020753 0.831882 0.022551
v -0.020753 0.831882 0.022551
v 0.000000 1.773414 -0.013394
v 0.020753 1.773414 0.022551
v -0.020753 1.773414 0.022551
v -0.466162 1.209589 -0.059030
v -0.466162 1.188836 -0.023085
v -0.466162 1.230340 -0.023085
v 0.466162 1.209589 -0.059029
v 0.466162 1.188836 -0.023084
v 0.466162 1.230340 -0.023084
v -0.311701 1.740842 -0.059030
v -0.311701 1.720090 -0.023085
v -0.311701 1.761594 -0.023085
v 0.311702 1.740842 -0.059029
v 0.311702 1.720090 -0.023084
v 0.311702 1.761594 -0.023084
v -0.566144 0.679241 -0.059030
v -0.566144 0.658489 -0.023085
v -0.566144 0.699994 -0.023085
v 0.566144 0.679241 -0.059029
v 0.566144 0.658489 -0.023084
v 0.566144 0.699994 -0.023084
v -0.598281 0.156054 -0.059030
v -0.598281 0.135301 -0.023085
v -0.598281 0.176807 -0.023085
v 0.598282 0.156054 -0.059029
v 0.598282 0.135301 -0.023084
v 0.598282 0.176807 -0.023084
vn 0.8660 -0.0000 -0.5000
vn -0.0000 -0.0000 1.0000
vn -0.8660 -0.0000 -0.5000
vn -0.0000 1.0000 -0.0000
vn -0.0000 -0.8660 -0.5000
vn -0.0000 0.8660 -0.5000
vn -1.0000 -0.0000 -0.0000
vn 1.0000 -0.0000 -0.0000
vt 0.910690 0.505262
vt 0.910690 0.905996
vt 0.900324 0.905996
vt 0.948974 0.305543
vt 0.948974 0.659414
vt 0.930225 0.659414
vt 0.889959 0.505262
vt 0.889959 0.905996
vt 0.879593 0.905996
vt 0.900324 0.505262
vt 0.289497 0.541797
vt 0.298474 0.546980
vt 0.289497 0.552163
vt 0.967723 0.305543
vt 0.967724 0.659414
vt 0.930225 0.305543
vt 0.911475 0.659414
vt 0.677852 0.619826
vt 0.694089 0.629201
vt 0.677852 0.638575
vt 0.000393 0.929909
vt 0.233231 0.929909
vt 0.233231 0.942503
vt 0.000393 0.960169
vt 0.233231 0.960169
vt 0.233231 0.972762
vt 0.000393 0.942503
vt 0.752035 0.633204
vt 0.764628 0.633204
vt 0.752238 0.645796
vt 0.751046 0.633204
vt 0.751249 0.645796
vt 0.738656 0.645796
vt 0.677852 0.542050
vt 0.833540 0.542050
vt 0.833540 0.554644
vt 0.677852 0.572309
vt 0.833540 0.572309
vt 0.833540 0.584903
vt 0.677852 0.554644
vt 0.711897 0.633204
vt 0.724491 0.633204
vt 0.712101 0.645796
vt 0.724288 0.619826
vt 0.724491 0.632418
vt 0.711897 0.632418
vt 0.511493 0.892861
vt 0.794271 0.892862
vt 0.794271 0.905455
vt 0.511493 0.923121
vt 0.794271 0.923121
vt 0.794271 0.935714
vt 0.511493 0.905455
vt 0.752035 0.619826
vt 0.764629 0.619826
vt 0.752238 0.632418
vt 0.737667 0.619826
vt 0.737870 0.632418
vt 0.725277 0.632418
vt 0.000393 0.842631
vt 0.299219 0.842631
vt 0.299219 0.855225
vt 0.000393 0.872891
vt 0.299219 0.872891
vt 0.299219 0.885485
vt 0.000393 0.855225
vt 0.725277 0.633204
vt 0.737870 0.633204
vt 0.725480 0.645796
vt 0.751046 0.619826
vt 0.751249 0.632418
vt 0.738656 0.632418
vt 0.879593 0.505262
vt 0.911475 0.305543
vt 0.000393 0.972762
vt 0.677852 0.584903
vt 0.511493 0.935715
vt 0.000393 0.885484
s 0
usemtl None.050
f 4/1/1 10/2/1 11/3/1
f 3/4/2 6/5/2 5/6/2
f 9/7/3 12/8/3 10/9/3
f 8/10/2 11/3/2 12/8/2
f 12/11/4 11/12/4 10/13/4
f 3/4/1 1/14/1 7/15/1
f 2/16/3 5/6/3 7/17/3
f 5/18/4 6/19/4 7/20/4
f 13/21/5 16/22/5 17/23/5
f 15/24/6 18/25/6 16/26/6
f 14/27/2 17/23/2 18/25/2
f 13/28/7 14/29/7 15/30/7
f 17/31/8 16/32/8 18/33/8
f 19/34/5 22/35/5 23/36/5
f 21/37/6 24/38/6 22/39/6
f 20/40/2 23/36/2 24/38/2
f 19/41/7 20/42/7 21/43/7
f 23/44/8 22/45/8 24/46/8
f 25/47/5 28/48/5 29/49/5
f 27/50/6 30/51/6 28/52/6
f 26/53/2 29/49/2 30/51/2
f 25/54/7 26/55/7 27/56/7
f 29/57/8 28/58/8 30/59/8
f 31/60/5 34/61/5 35/62/5
f 33/63/6 36/64/6 34/65/6
f 32/66/2 35/62/2 36/64/2
f 31/67/7 32/68/7 33/69/7
f 35/70/8 34/71/8 36/72/8
f 8/10/1 4/1/1 11/3/1
f 2/16/2 3/4/2 5/6/2
f 4/73/3 9/7/3 10/9/3
f 9/7/2 8/10/2 12/8/2
f 6/5/1 3/4/1 7/15/1
f 1/74/3 2/16/3 7/17/3
f 14/27/5 13/21/5 17/23/5
f 13/75/6 15/24/6 16/26/6
f 15/24/2 14/27/2 18/25/2
f 20/40/5 19/34/5 23/36/5
f 19/76/6 21/37/6 22/39/6
f 21/37/2 20/40/2 24/38/2
f 26/53/5 25/47/5 29/49/5
f 25/77/6 27/50/6 28/52/6
f 27/50/2 26/53/2 30/51/2
f 32/66/5 31/60/5 35/62/5
f 31/78/6 33/63/6 34/65/6
f 33/63/2 32/66/2 36/64/2
