# Blender 3.6.0
# www.blender.org
mtllib BrigMainMast.mtl
o SchoonerSails2.001_Circle.007
v 0.000000 0.030969 0.020703
v -0.017579 0.000616 0.023100
v 0.017579 0.000616 0.023100
v 0.000000 0.092970 0.805810
v -0.017579 0.062617 0.808207
v 0.017579 0.062617 0.808207
v 0.000000 0.642005 0.013053
v -0.017579 0.613845 0.024634
v 0.017579 0.613845 0.024634
v 0.000000 0.883510 0.600306
v -0.017579 0.855351 0.611886
v 0.017579 0.855351 0.611886
v 0.000000 0.038915 -0.034585
v -0.037538 0.038915 0.030433
v 0.037538 0.038915 0.030433
v 0.000000 1.117724 -0.015203
v -0.037538 1.117724 0.030433
v 0.037538 1.117724 0.030433
v 0.000000 1.117724 -0.034585
v 0.020753 1.117724 0.020742
v -0.020753 1.117724 0.020742
v 0.000000 2.339404 -0.015203
v 0.020753 2.339404 0.020742
v -0.020753 2.339404 0.020742
v -0.595761 1.652485 -0.056633
v -0.595761 1.631732 -0.020689
v -0.595761 1.673238 -0.020689
v 0.595761 1.652485 -0.056633
v 0.595761 1.631732 -0.020688
v 0.595761 1.673238 -0.020688
v -0.422475 2.291656 -0.056633
v -0.422475 2.270903 -0.020689
v -0.422475 2.312408 -0.020689
v 0.422476 2.291656 -0.056633
v 0.422476 2.270903 -0.020688
v 0.422476 2.312408 -0.020688
v -0.729407 0.634211 -0.056633
v -0.729407 0.613459 -0.020689
v -0.729407 0.654964 -0.020689
v 0.729407 0.634211 -0.056633
v 0.729407 0.613459 -0.020688
v 0.729407 0.654964 -0.020688
vn 0.8660 0.4985 -0.0394
vn -0.0000 -0.9969 0.0787
vn -0.8660 0.4985 -0.0394
vn 0.8660 0.4624 -0.1902
vn -0.0000 -0.9248 0.3803
vn -0.8660 0.4624 -0.1902
vn 0.8660 -0.0000 -0.5000
vn -0.0000 -0.0000 1.0000
vn -0.8660 -0.0000 -0.5000
vn -0.0000 1.0000 -0.0000
vn -0.0000 0.3803 0.9248
vn -0.0000 0.0787 0.9969
vn -0.0000 -0.8660 -0.5000
vn -0.0000 0.8660 -0.5000
vn -1.0000 -0.0000 -0.0000
vn 1.0000 -0.0000 -0.0000
vt 0.677852 0.541264
vt 0.678982 0.527653
vt 0.876819 0.527654
vt 0.678982 0.518873
vt 0.876819 0.518873
vt 0.677852 0.505262
vt 0.875690 0.505262
vt 0.856946 0.619041
vt 0.677852 0.619040
vt 0.682362 0.606755
vt 0.682362 0.597975
vt 0.861457 0.597974
vt 0.677852 0.585689
vt 0.856946 0.585689
vt 0.999607 0.305543
vt 0.999607 0.825509
vt 0.989241 0.825509
vt 0.340282 0.403499
vt 0.340283 0.862657
vt 0.321533 0.862657
vt 0.978876 0.305543
vt 0.978875 0.825509
vt 0.968509 0.825509
vt 0.989241 0.305543
vt 0.289497 0.552948
vt 0.299863 0.552948
vt 0.294680 0.561925
vt 0.359031 0.403499
vt 0.359033 0.862657
vt 0.321533 0.403499
vt 0.302783 0.862657
vt 0.694875 0.619826
vt 0.711112 0.629201
vt 0.694875 0.638575
vt 0.289497 0.527924
vt 0.297769 0.530870
vt 0.289497 0.541012
vt 0.289497 0.514208
vt 0.298277 0.514205
vt 0.293891 0.527139
vt 0.000393 0.886271
vt 0.297961 0.886270
vt 0.297961 0.898864
vt 0.000393 0.916530
vt 0.297961 0.916530
vt 0.297961 0.929124
vt 0.000393 0.898864
vt 0.289497 0.504587
vt 0.298474 0.495754
vt 0.298474 0.513419
vt 0.289497 0.421950
vt 0.298474 0.430783
vt 0.289497 0.439615
vt 0.298746 0.886270
vt 0.509763 0.886270
vt 0.509763 0.898864
vt 0.298746 0.916530
vt 0.509763 0.916530
vt 0.509763 0.929123
vt 0.298746 0.898864
vt 0.289497 0.467685
vt 0.298474 0.458852
vt 0.298474 0.476517
vt 0.289497 0.403499
vt 0.298474 0.412332
vt 0.289497 0.421165
vt 0.511493 0.849223
vt 0.875816 0.849223
vt 0.875816 0.861817
vt 0.511493 0.879482
vt 0.875816 0.879482
vt 0.875816 0.892076
vt 0.511493 0.861816
vt 0.289497 0.486136
vt 0.298474 0.477303
vt 0.298474 0.494968
vt 0.289497 0.440401
vt 0.298474 0.449234
vt 0.289497 0.458066
vt 0.875689 0.541265
vt 0.861457 0.606755
vt 0.968511 0.305543
vt 0.302784 0.403499
vt 0.000393 0.929124
vt 0.298746 0.929123
vt 0.511493 0.892076
s 0
usemtl None.048
f 4/1/1 6/2/1 3/3/1
f 6/2/2 5/4/2 2/5/2
f 5/4/3 4/6/3 1/7/3
f 7/8/4 10/9/4 12/10/4
f 12/10/5 11/11/5 8/12/5
f 11/11/6 10/13/6 7/14/6
f 16/15/7 22/16/7 23/17/7
f 15/18/8 18/19/8 17/20/8
f 21/21/9 24/22/9 22/23/9
f 20/24/8 23/17/8 24/22/8
f 24/25/10 23/26/10 22/27/10
f 13/28/7 19/29/7 18/19/7
f 14/30/9 17/20/9 19/31/9
f 17/32/10 18/33/10 19/34/10
f 11/35/11 12/36/11 10/37/11
f 5/38/12 6/39/12 4/40/12
f 25/41/13 28/42/13 29/43/13
f 27/44/14 30/45/14 28/46/14
f 26/47/8 29/43/8 30/45/8
f 25/48/15 26/49/15 27/50/15
f 29/51/16 28/52/16 30/53/16
f 31/54/13 34/55/13 35/56/13
f 33/57/14 36/58/14 34/59/14
f 32/60/8 35/56/8 36/58/8
f 31/61/15 32/62/15 33/63/15
f 35/64/16 34/65/16 36/66/16
f 37/67/13 40/68/13 41/69/13
f 39/70/14 42/71/14 40/72/14
f 38/73/8 41/69/8 42/71/8
f 37/74/15 38/75/15 39/76/15
f 41/77/16 40/78/16 42/79/16
f 1/80/1 4/1/1 3/3/1
f 3/3/2 6/2/2 2/5/2
f 2/5/3 5/4/3 1/7/3
f 9/81/4 7/8/4 12/10/4
f 9/81/5 12/10/5 8/12/5
f 8/12/6 11/11/6 7/14/6
f 20/24/7 16/15/7 23/17/7
f 14/30/8 15/18/8 17/20/8
f 16/82/9 21/21/9 22/23/9
f 21/21/8 20/24/8 24/22/8
f 15/18/7 13/28/7 18/19/7
f 13/83/9 14/30/9 19/31/9
f 26/47/13 25/41/13 29/43/13
f 25/84/14 27/44/14 28/46/14
f 27/44/8 26/47/8 30/45/8
f 32/60/13 31/54/13 35/56/13
f 31/85/14 33/57/14 34/59/14
f 33/57/8 32/60/8 36/58/8
f 38/73/13 37/67/13 41/69/13
f 37/86/14 39/70/14 40/72/14
f 39/70/8 38/73/8 42/71/8
