# Exported from Nomad Sculpt
o Base
usemtl mat0_Base
v 0.192500010 -0.49674168 0.333419799 1 1 1
v -0.19250001 -0.49674168 0.333419799 1 1 1
v 0 -0.49674168 -0.00000002 1 1 1
v 0.385000050 -0.49674168 -0.00000001 1 1 1
v 0.192500010 -0.49674168 -0.3334198 1 1 1
v -0.19250001 -0.49674168 -0.3334198 1 1 1
v 0.550000011 -0.49674168 0 1 1 1
v 0.275000006 -0.49674168 0.476314038 1 1 1
v 0.274999976 -0.49674168 -0.47631404 1 1 1
v -0.27500004 -0.49674168 0.476314008 1 1 1
v -0.55000001 -0.49674168 -0.00000005 1 1 1
v -0.38500005 -0.49674168 -0.00000004 1 1 1
v -0.27499998 -0.49674168 -0.47631404 1 1 1
v -0.27499998 -0.44106141 -0.47631404 1 1 1
v 0.274999976 -0.44106141 -0.47631404 1 1 1
v 0.550000011 -0.44106141 0 1 1 1
v 0.275000006 -0.44106141 0.476314038 1 1 1
v -0.27500004 -0.44106141 0.476314008 1 1 1
v -0.55000001 -0.44106141 -0.00000005 1 1 1
v -0.38500005 -0.44106141 -0.00000004 1 1 1
v -0.19250001 -0.44106141 -0.3334198 1 1 1
v 0.192500010 -0.44106141 -0.3334198 1 1 1
v 0.385000050 -0.44106141 -0.00000001 1 1 1
v 0.192500010 -0.44106141 0.333419799 1 1 1
v -0.19250001 -0.44106141 0.333419799 1 1 1
v 0 -0.44106141 -0.00000002 1 1 1
v -0.24956411 -0.4415125 0.476268023 1 1 1
v -0.24943849 -0.36713398 0.429791092 1 1 1
v -0.24950403 -0.40591279 0.367731958 1 1 1
v -0.24962965 -0.48029128 0.414208889 1 1 1
v 0.249504029 -0.44235542 0.476268023 1 1 1
v 0.249629646 -0.3679769 0.429791092 1 1 1
v 0.249438494 -0.48113427 0.414208889 1 1 1
v 0.249564111 -0.40675572 0.367731958 1 1 1
v -0.24962962 -0.48029128 -0.41420889 1 1 1
v -0.249504 -0.40591276 -0.36773196 1 1 1
v -0.24943852 -0.36713398 -0.42979109 1 1 1
v -0.24956414 -0.4415125 -0.47626802 1 1 1
v 0.249438524 -0.48113421 -0.41420889 1 1 1
v 0.249564141 -0.40675572 -0.36773196 1 1 1
v 0.249503999 -0.44235542 -0.47626802 1 1 1
v 0.249629616 -0.36797693 -0.42979109 1 1 1
v 0.287200361 -0.44180265 0.454237163 1 1 1
v 0.247075840 -0.36735609 0.430998683 1 1 1
v 0.193265602 -0.40604413 0.399969160 1 1 1
v 0.233390122 -0.48049065 0.423207581 1 1 1
v 0.536734402 -0.44222406 0.022030845 1 1 1
v 0.496609896 -0.36777756 -0.00120761 1 1 1
v 0.482924163 -0.48091212 -0.00899871 1 1 1
v 0.442799657 -0.40646559 -0.03223716 1 1 1
v -0.53679442 -0.44164386 0.022030755 1 1 1
v -0.49641863 -0.36733329 -0.00120769 1 1 1
v -0.44273937 -0.40620288 -0.03223725 1 1 1
v -0.48311517 -0.48051348 -0.0089988 1 1 1
v -0.28726065 -0.44206533 0.454237222 1 1 1
v -0.24688485 -0.36775476 0.430998802 1 1 1
v -0.23358139 -0.48093489 0.423207700 1 1 1
v -0.19320561 -0.40662435 0.399969220 1 1 1
v 0.233390122 -0.48049071 -0.42362726 1 1 1
v 0.193265572 -0.40604416 -0.40038878 1 1 1
v 0.247075796 -0.36735612 -0.43141839 1 1 1
v 0.287200331 -0.44180265 -0.45465687 1 1 1
v 0.482924222 -0.48091212 0.008579105 1 1 1
v 0.442799687 -0.40646556 0.031817585 1 1 1
v 0.536734461 -0.44222406 -0.02245051 1 1 1
v 0.496609896 -0.36777753 0.000787973 1 1 1
v -0.48349157 -0.48051843 0.008560970 1 1 1
v -0.44307458 -0.40623769 0.031823262 1 1 1
v -0.49673226 -0.36732841 0.000806137 1 1 1
v -0.53714925 -0.44160911 -0.02245615 1 1 1
v -0.23395744 -0.48093984 -0.42364544 1 1 1
v -0.19354045 -0.4066591 -0.40038311 1 1 1
v -0.28761512 -0.44203052 -0.45466256 1 1 1
v -0.24719813 -0.36774981 -0.43140024 1 1 1
vn 0 -1 0
vn 0 -1 0
vn 0 -1 0
vn 0 -1 0
vn 0 -1 0
vn 0 -1 0
vn 0.369005799 -0.92942709 0
vn 0.184488371 -0.92943072 0.319566190
vn 0.184490174 -0.92943984 -0.3195388
vn -0.1844589 -0.92943603 0.319568008
vn -0.36897945 -0.92943758 0
vn 0 -1 0
vn -0.18446068 -0.92944503 -0.31954059
vn -0.18445545 0.929449200 -0.31953153
vn 0.184484943 0.929443955 -0.31952974
vn 0.368995338 0.929431259 0
vn 0.184483140 0.929434895 0.319557130
vn -0.18445365 0.929440081 0.319558918
vn -0.36896899 0.929441690 0
vn 0 1 0
vn 0 1 0
vn 0 1 0
vn 0 1 0
vn 0 1 0
vn 0 1 0
vn 0 1 0
vn -0.11206446 -0.13535018 0.984439909
vn -0.11026264 0.944419503 0.309699773
vn -0.11160975 0.135750666 -0.98443645
vn -0.11344311 -0.94404691 -0.3096872
vn 0.111636988 -0.13571616 0.984438061
vn 0.113468900 0.944038033 0.309704780
vn 0.110297009 -0.94442201 -0.30968007
vn 0.112097494 0.135383740 -0.98443151
vn -0.11344204 -0.94403797 0.309714764
vn -0.1116064 0.135746583 0.984437406
vn -0.11026368 0.944428443 -0.30967218
vn -0.11206783 -0.13535425 -0.98443896
vn 0.110295966 -0.94441301 0.309707641
vn 0.112094134 0.135379687 0.984432518
vn 0.111640349 -0.13572024 -0.98443711
vn 0.113469973 0.944046914 -0.30967718
vn 0.796382784 -0.1368759 0.589100480
vn 0.213871449 0.943866431 0.251744508
vn -0.90825641 0.137093007 -0.39531738
vn -0.32573205 -0.94368601 -0.05792555
vn 0.908254623 -0.13705762 0.395333856
vn 0.325749367 0.943678259 0.057953722
vn -0.21385011 -0.9438765 -0.25172481
vn -0.79638267 0.136911645 -0.58909243
vn -0.90870494 -0.13400918 0.395343899
vn -0.32252738 0.944784283 0.057956047
vn 0.796851098 0.134222567 -0.58907777
vn 0.210678368 -0.94458872 -0.25172755
vn -0.79682893 -0.13419345 0.589114427
vn -0.21064152 0.944590866 0.251750499
vn 0.322564542 -0.94477332 -0.05792672
vn 0.908717632 0.134037062 -0.3953056
vn -0.32573152 -0.94368434 0.057955972
vn -0.90824544 0.137091353 0.395343124
vn 0.213873073 0.943873643 -0.25171593
vn 0.796397149 -0.13687837 -0.58908057
vn -0.21384847 -0.94386923 0.251753389
vn -0.7963683 0.136909171 0.589112341
vn 0.908265531 -0.13705926 -0.39530808
vn 0.325749963 0.943679928 -0.05792331
vn 0.210154593 -0.94478017 0.251446932
vn 0.796898841 0.133579447 0.589159488
vn -0.32200363 0.944983482 -0.05761945
vn -0.90879345 -0.13337232 -0.39535585
vn 0.322039693 -0.94496924 0.057650964
vn 0.908784091 0.133396983 0.395369023
vn -0.79690522 -0.13355511 -0.58915627
vn -0.21012098 0.944796681 -0.25141272
s 0
f 1//1 2//2 3//3 4//4
f 5//5 4//4 3//3 6//6
f 1//1 4//4 7//7 8//8
f 4//4 5//5 9//9 7//7
f 2//2 1//1 8//8 10//10
f 10//10 11//11 12//12 2//2
f 12//12 6//6 3//3 2//2
f 6//6 12//12 11//11 13//13
f 5//5 6//6 13//13 9//9
f 13//13 14//14 15//15 9//9
f 9//9 15//15 16//16 7//7
f 7//7 16//16 17//17 8//8
f 8//8 17//17 18//18 10//10
f 10//10 18//18 19//19 11//11
f 11//11 19//19 14//14 13//13
f 19//19 20//20 21//21 14//14
f 14//14 21//21 22//22 15//15
f 15//15 22//22 23//23 16//16
f 16//16 23//23 24//24 17//17
f 17//17 24//24 25//25 18//18
f 18//18 25//25 20//20 19//19
f 20//20 25//25 26//26 21//21
f 26//26 23//23 22//22 21//21
f 26//26 25//25 24//24 23//23
f 27//27 28//28 29//29 30//30
f 31//31 32//32 28//28 27//27
f 27//27 30//30 33//33 31//31
f 29//29 28//28 32//32 34//34
f 30//30 29//29 34//34 33//33
f 33//33 34//34 32//32 31//31
f 35//35 36//36 37//37 38//38
f 39//39 40//40 36//36 35//35
f 35//35 38//38 41//41 39//39
f 37//37 36//36 40//40 42//42
f 38//38 37//37 42//42 41//41
f 41//41 42//42 40//40 39//39
f 43//43 44//44 45//45 46//46
f 47//47 48//48 44//44 43//43
f 43//43 46//46 49//49 47//47
f 45//45 44//44 48//48 50//50
f 46//46 45//45 50//50 49//49
f 49//49 50//50 48//48 47//47
f 51//51 52//52 53//53 54//54
f 55//55 56//56 52//52 51//51
f 51//51 54//54 57//57 55//55
f 53//53 52//52 56//56 58//58
f 54//54 53//53 58//58 57//57
f 57//57 58//58 56//56 55//55
f 59//59 60//60 61//61 62//62
f 63//63 64//64 60//60 59//59
f 59//59 62//62 65//65 63//63
f 61//61 60//60 64//64 66//66
f 62//62 61//61 66//66 65//65
f 65//65 66//66 64//64 63//63
f 67//67 68//68 69//69 70//70
f 71//71 72//72 68//68 67//67
f 67//67 70//70 73//73 71//71
f 69//69 68//68 72//72 74//74
f 70//70 69//69 74//74 73//73
f 73//73 74//74 72//72 71//71
