# Exported from Nomad Sculpt
o Top
usemtl mat0_Top
v -0.17500001 0.119513802 0.303108900 1 1 1
v 0.175000011 0.119513802 0.303108900 1 1 1
v 0.25 0.119513802 0.433012783 1 1 1
v -0.25000006 0.119513802 0.433012723 1 1 1
v 0 0.119513802 -0.00000002 1 1 1
v 0.350000023 0.119513802 -0.00000001 1 1 1
v 0.500000059 0.119513802 0 1 1 1
v -0.35000002 0.119513802 -0.00000004 1 1 1
v -0.50000006 0.119513802 -0.00000004 1 1 1
v -0.17500001 0.119513802 -0.3031089 1 1 1
v -0.25000006 0.190215572 0.433012723 1 1 1
v -0.50000006 0.190215572 -0.00000004 1 1 1
v 0.25 0.190215572 0.433012783 1 1 1
v 0.500000059 0.190215572 0 1 1 1
v 0.249999970 0.119513802 -0.43301278 1 1 1
v 0.249999970 0.190215572 -0.43301278 1 1 1
v 0.175000011 0.119513802 -0.3031089 1 1 1
v -0.24999997 0.119513802 -0.43301278 1 1 1
v -0.24999997 0.190215572 -0.43301278 1 1 1
v -0.35000002 0.190215572 -0.00000004 1 1 1
v -0.17500001 0.190215572 -0.3031089 1 1 1
v -0.17500001 0.190215572 0.303108900 1 1 1
v 0.175000011 0.190215572 0.303108900 1 1 1
v 0.350000023 0.190215572 -0.00000001 1 1 1
v 0.175000011 0.190215572 -0.3031089 1 1 1
v 0 0.190215572 -0.00000002 1 1 1
vn 0 -1 0
vn 0 -1 0
vn 0.242475390 -0.87452888 0.420005828
vn -0.24244665 -0.87453538 0.420008927
vn 0 -1 0
vn 0 -1 0
vn 0.484956085 -0.87453848 0
vn 0 -1 0
vn -0.48493275 -0.87455142 0
vn 0 -1 0
vn -0.24244018 0.874542534 0.419997692
vn -0.48491979 0.874558568 0
vn 0.242468923 0.874536156 0.419994622
vn 0.484943151 0.874545693 0
vn 0.242478489 -0.87454009 -0.41998067
vn 0.242472022 0.874547302 -0.41996947
vn 0 -1 0
vn -0.24244976 -0.87454659 -0.41998377
vn -0.24244328 0.87455374 -0.41997257
vn 0 1 0
vn 0 1 0
vn 0 1 0
vn 0 1 0
vn 0 1 0
vn 0 1 0
vn 0 1 0
s 0
f 1//1 2//2 3//3 4//4
f 2//2 1//1 5//5 6//6
f 2//2 6//6 7//7 3//3
f 8//8 1//1 4//4 9//9
f 5//5 1//1 8//8 10//10
f 4//4 11//11 12//12 9//9
f 3//3 13//13 11//11 4//4
f 7//7 14//14 13//13 3//3
f 15//15 16//16 14//14 7//7
f 6//6 17//17 15//15 7//7
f 17//17 6//6 5//5 10//10
f 10//10 8//8 9//9 18//18
f 17//17 10//10 18//18 15//15
f 9//9 12//12 19//19 18//18
f 12//12 20//20 21//21 19//19
f 11//11 22//22 20//20 12//12
f 13//13 23//23 22//22 11//11
f 14//14 24//24 23//23 13//13
f 16//16 25//25 24//24 14//14
f 19//19 21//21 25//25 16//16
f 18//18 19//19 16//16 15//15
f 26//26 24//24 25//25 21//21
f 26//26 21//21 20//20 22//22
f 23//23 24//24 26//26 22//22
