# Exported from Nomad Sculpt
o BaseTop
usemtl mat0_BaseTop
v 0.192500010 0.148020088 -0.33341983 1 1 1
v -0.19250001 0.148020088 -0.33341983 1 1 1
v 0 0.148020058 0.000000007 1 1 1
v 0.385000050 0.148020058 -0.00000001 1 1 1
v 0.192500010 0.148020029 0.33341977 1 1 1
v -0.19250001 0.148020029 0.33341977 1 1 1
v 0.550000011 0.148020058 -0.00000002 1 1 1
v 0.275000006 0.148020103 -0.47631407 1 1 1
v 0.274999976 0.148020014 0.476314008 1 1 1
v -0.27500004 0.148020103 -0.47631404 1 1 1
v -0.55000001 0.148020058 0.000000031 1 1 1
v -0.38500005 0.148020058 0.000000024 1 1 1
v -0.27499998 0.148020014 0.476314008 1 1 1
v -0.27499998 0.092339739 0.476314008 1 1 1
v 0.274999976 0.092339739 0.476314008 1 1 1
v 0.550000011 0.092339783 -0.00000002 1 1 1
v 0.275000006 0.092339828 -0.47631407 1 1 1
v -0.27500004 0.092339828 -0.47631404 1 1 1
v -0.55000001 0.092339783 0.000000026 1 1 1
v -0.38500005 0.092339783 0.000000019 1 1 1
v -0.19250001 0.092339754 0.33341977 1 1 1
v 0.192500010 0.092339754 0.33341977 1 1 1
v 0.385000050 0.092339783 -0.00000001 1 1 1
v 0.192500010 0.092339813 -0.33341983 1 1 1
v -0.19250001 0.092339813 -0.33341983 1 1 1
v 0 0.092339783 0.000000002 1 1 1
v -0.24956411 0.092790916 -0.47626805 1 1 1
v -0.24943849 0.018412388 -0.42979112 1 1 1
v -0.24950403 0.057191196 -0.36773199 1 1 1
v -0.24962965 0.131569683 -0.41420892 1 1 1
v 0.249504029 0.093633845 -0.47626805 1 1 1
v 0.249629646 0.019255317 -0.42979112 1 1 1
v 0.249438494 0.132412672 -0.41420892 1 1 1
v 0.249564111 0.058034125 -0.36773199 1 1 1
v -0.24962962 0.131569623 0.414208859 1 1 1
v -0.249504 0.0571911 0.367731928 1 1 1
v -0.24943852 0.018412314 0.429791063 1 1 1
v -0.24956414 0.092790827 0.476267993 1 1 1
v 0.249438524 0.132412552 0.414208859 1 1 1
v 0.249564141 0.058034058 0.367731928 1 1 1
v 0.249503999 0.093633756 0.476267993 1 1 1
v 0.249629616 0.019255273 0.429791063 1 1 1
v 0.287200361 0.093081064 -0.45423719 1 1 1
v 0.247075840 0.018634505 -0.43099871 1 1 1
v 0.193265602 0.057322535 -0.39996919 1 1 1
v 0.233390122 0.131769061 -0.42320761 1 1 1
v 0.536734402 0.093502432 -0.02203087 1 1 1
v 0.496609896 0.019055932 0.001207576 1 1 1
v 0.482924163 0.132190495 0.008998688 1 1 1
v 0.442799657 0.057743962 0.032237131 1 1 1
v -0.53679442 0.092922240 -0.02203078 1 1 1
v -0.49641863 0.018611669 0.001207666 1 1 1
v -0.44273937 0.057481255 0.032237220 1 1 1
v -0.48311517 0.131791859 0.008998777 1 1 1
v -0.28726065 0.093343742 -0.45423725 1 1 1
v -0.24688485 0.019033171 -0.43099883 1 1 1
v -0.23358139 0.132213294 -0.42320773 1 1 1
v -0.19320561 0.057902757 -0.39996925 1 1 1
v 0.233390122 0.131769061 0.423627227 1 1 1
v 0.193265572 0.057322498 0.400388747 1 1 1
v 0.247075796 0.018634460 0.431418359 1 1 1
v 0.287200331 0.09308099 0.454656839 1 1 1
v 0.482924222 0.132190495 -0.00857912 1 1 1
v 0.442799687 0.057743940 -0.03181761 1 1 1
v 0.536734461 0.093502432 0.022450484 1 1 1
v 0.496609896 0.019055903 -0.000788 1 1 1
v -0.48349157 0.131796807 -0.00856099 1 1 1
v -0.44307458 0.057516071 -0.03182329 1 1 1
v -0.49673226 0.018606782 -0.00080617 1 1 1
v -0.53714925 0.092887491 0.022456131 1 1 1
v -0.23395744 0.132218182 0.423645407 1 1 1
v -0.19354045 0.057937439 0.400383085 1 1 1
v -0.28761512 0.093308858 0.454662531 1 1 1
v -0.24719813 0.019028149 0.431400209 1 1 1
vn 0 1 0.000000087
vn 0 1 0.000000087
vn 0 1 0.000000087
vn 0 1 0.000000087
vn 0 1 0.000000087
vn 0 1 0.000000087
vn 0.369005799 0.929427087 0.000000081
vn 0.184488385 0.929430782 -0.31956613
vn 0.184490159 0.929439783 0.319538891
vn -0.1844589 0.929436028 -0.31956792
vn -0.36897945 0.929437577 0.000000081
vn 0 1 0.000000087
vn -0.18446068 0.929445028 0.319540679
vn -0.18445547 -0.92944926 0.319531470
vn 0.184484943 -0.92944396 0.319529652
vn 0.368995338 -0.92943126 -0.00000008
vn 0.184483140 -0.9294349 -0.31955722
vn -0.18445365 -0.92944008 -0.31955901
vn -0.36896899 -0.92944169 -0.00000008
vn 0 -1 -0.00000009
vn 0 -1 -0.00000009
vn 0 -1 -0.00000009
vn 0 -1 -0.00000009
vn 0 -1 -0.00000009
vn 0 -1 -0.00000009
vn 0 -1 -0.00000009
vn -0.11206446 0.135350272 -0.98443991
vn -0.11026264 -0.9444195 -0.30969986
vn -0.11160974 -0.13575074 0.984436392
vn -0.11344311 0.944046855 0.309687256
vn 0.111636988 0.135716244 -0.98443806
vn 0.113468892 -0.94403797 -0.30970484
vn 0.110297001 0.944421947 0.309680134
vn 0.112097494 -0.13538383 0.984431505
vn -0.11344205 0.944038033 -0.3097147
vn -0.1116064 -0.13574649 -0.98443741
vn -0.11026368 -0.94442844 0.309672087
vn -0.11206783 0.135354161 0.984438955
vn 0.110295973 0.944413065 -0.30970758
vn 0.112094134 -0.1353796 -0.98443252
vn 0.111640349 0.135720148 0.984437108
vn 0.113469980 -0.94404697 0.309677124
vn 0.796382784 0.136875942 -0.58910048
vn 0.213871419 -0.94386631 -0.25174457
vn -0.90825641 -0.13709304 0.395317375
vn -0.32573205 0.943686008 0.057925634
vn 0.908254623 0.137057647 -0.39533386
vn 0.325749367 -0.94367826 -0.0579538
vn -0.21385011 0.943876445 0.251724898
vn -0.79638267 -0.13691169 0.589092433
vn -0.90870494 0.134009212 -0.3953439
vn -0.32252738 -0.94478428 -0.05795613
vn 0.796851098 -0.13422261 0.589077770
vn 0.210678368 0.944588720 0.251727640
vn -0.79682893 0.134193494 -0.58911443
vn -0.21064152 -0.94459087 -0.25175059
vn 0.322564542 0.944773316 0.057926803
vn 0.908717632 -0.13403709 0.395305603
vn -0.32573152 0.943684339 -0.05795589
vn -0.90824544 -0.13709132 -0.39534312
vn 0.213873073 -0.94387364 0.251715838
vn 0.796397209 0.136878326 0.589080631
vn -0.21384847 0.943869233 -0.2517533
vn -0.7963683 -0.13690913 -0.58911234
vn 0.908265531 0.137059226 0.395308077
vn 0.325749963 -0.94367993 0.057923223
vn 0.210154593 0.944780170 -0.25144684
vn 0.796898841 -0.1335794 -0.58915949
vn -0.32200363 -0.94498348 0.057619370
vn -0.90879345 0.133372291 0.395355850
vn 0.322039693 0.944969236 -0.05765088
vn 0.908784091 -0.13339695 -0.39536902
vn -0.79690522 0.133555069 0.58915627
vn -0.21012098 -0.94479668 0.251412630
s 0
f 1//1 2//2 3//3 4//4
f 5//5 4//4 3//3 6//6
f 1//1 4//4 7//7 8//8
f 4//4 5//5 9//9 7//7
f 2//2 1//1 8//8 10//10
f 10//10 11//11 12//12 2//2
f 12//12 6//6 3//3 2//2
f 6//6 12//12 11//11 13//13
f 5//5 6//6 13//13 9//9
f 13//13 14//14 15//15 9//9
f 9//9 15//15 16//16 7//7
f 7//7 16//16 17//17 8//8
f 8//8 17//17 18//18 10//10
f 10//10 18//18 19//19 11//11
f 11//11 19//19 14//14 13//13
f 19//19 20//20 21//21 14//14
f 14//14 21//21 22//22 15//15
f 15//15 22//22 23//23 16//16
f 16//16 23//23 24//24 17//17
f 17//17 24//24 25//25 18//18
f 18//18 25//25 20//20 19//19
f 20//20 25//25 26//26 21//21
f 26//26 23//23 22//22 21//21
f 26//26 25//25 24//24 23//23
f 27//27 28//28 29//29 30//30
f 31//31 32//32 28//28 27//27
f 27//27 30//30 33//33 31//31
f 29//29 28//28 32//32 34//34
f 30//30 29//29 34//34 33//33
f 33//33 34//34 32//32 31//31
f 35//35 36//36 37//37 38//38
f 39//39 40//40 36//36 35//35
f 35//35 38//38 41//41 39//39
f 37//37 36//36 40//40 42//42
f 38//38 37//37 42//42 41//41
f 41//41 42//42 40//40 39//39
f 43//43 44//44 45//45 46//46
f 47//47 48//48 44//44 43//43
f 43//43 46//46 49//49 47//47
f 45//45 44//44 48//48 50//50
f 46//46 45//45 50//50 49//49
f 49//49 50//50 48//48 47//47
f 51//51 52//52 53//53 54//54
f 55//55 56//56 52//52 51//51
f 51//51 54//54 57//57 55//55
f 53//53 52//52 56//56 58//58
f 54//54 53//53 58//58 57//57
f 57//57 58//58 56//56 55//55
f 59//59 60//60 61//61 62//62
f 63//63 64//64 60//60 59//59
f 59//59 62//62 65//65 63//63
f 61//61 60//60 64//64 66//66
f 62//62 61//61 66//66 65//65
f 65//65 66//66 64//64 63//63
f 67//67 68//68 69//69 70//70
f 71//71 72//72 68//68 67//67
f 67//67 70//70 73//73 71//71
f 69//69 68//68 72//72 74//74
f 70//70 69//69 74//74 73//73
f 73//73 74//74 72//72 71//71
