# Blender 3.6.0
# www.blender.org
mtllib SchoonerHull.mtl
o SchoonerHull.001_Plane.008
v 0.000000 0.246858 -1.207524
v -0.013544 0.270147 -1.204705
v 0.013544 0.270147 -1.204705
v 0.000000 0.310120 -1.730185
v -0.013544 0.333409 -1.727366
v 0.013544 0.333409 -1.727366
v 0.036567 0.251711 0.540909
v 0.036567 0.251711 0.498684
v -0.036567 0.299846 0.498684
v 0.036567 0.299846 0.540909
v 0.036567 0.299846 0.498684
v -0.036567 0.251711 -0.323918
v 0.036567 0.251711 -0.323918
v 0.036567 0.251711 -0.366143
v -0.036567 0.299846 -0.323918
v 0.036567 0.299846 -0.323918
v -0.047293 0.175223 0.472503
v 0.047293 0.175223 0.567090
v -0.047293 0.251711 0.472503
v 0.047293 0.251711 0.472503
v 0.047293 0.251711 0.567090
v 0.047293 0.175223 -0.392324
v 0.008568 -0.326681 0.038587
v 0.040800 -0.235420 0.038587
v 0.129199 -0.133421 0.038587
v 0.294665 -0.063154 0.038587
v 0.369465 0.066045 0.038587
v 0.367198 0.233777 0.038587
v 0.008568 -0.107321 -0.840412
v 0.094696 -0.063765 -0.789384
v 0.221620 0.081291 -0.694284
v 0.287349 0.249712 -0.603824
v 0.193420 0.040174 1.421701
v 0.276004 0.156063 1.421701
v 0.285069 0.224055 1.421701
v 0.008568 -0.373686 1.158890
v 0.046337 -0.194625 1.152385
v 0.205247 -0.005382 1.152385
v 0.294984 0.135031 1.152385
v 0.301279 0.223159 1.152385
v 0.008568 -0.369067 0.594018
v 0.056375 -0.230982 0.594018
v 0.259415 -0.130528 0.594018
v 0.369465 0.066045 0.594018
v 0.367198 0.233777 0.594018
v 0.064965 0.183720 -1.136555
v 0.104711 0.262199 -1.136555
v 0.264303 0.278830 1.632189
v 0.155503 0.314301 1.633734
v 0.166522 0.138207 1.816270
v 0.008568 0.010624 1.421701
v 0.201545 0.068531 1.624933
v 0.256860 0.175223 -0.603824
v 0.347198 0.175223 0.594018
v 0.347198 0.175223 0.038587
v 0.281279 0.175223 1.152385
v 0.265069 0.175223 1.421701
v 0.242608 0.294430 1.421701
v 0.214263 0.278830 1.816270
v 0.347198 0.233777 0.594018
v 0.347198 0.233777 0.038587
v 0.281279 0.223159 1.152385
v 0.265069 0.224055 1.421701
v 0.267349 0.249712 -0.603824
v 0.133675 0.279877 -0.603824
v 0.121304 0.314844 1.421701
v 0.000000 0.251711 0.477572
v 0.000000 0.251711 0.562021
v -0.036567 0.251711 0.540909
v -0.036567 0.251711 0.498684
v 0.000000 0.299846 0.477572
v 0.000000 0.299846 0.562021
v -0.036567 0.299846 0.540909
v 0.000000 0.251711 -0.387255
v 0.000000 0.251711 -0.302806
v -0.036567 0.251711 -0.366143
v 0.000000 0.299846 -0.387255
v 0.036567 0.299846 -0.366143
v 0.000000 0.299846 -0.302806
v -0.036567 0.299846 -0.366143
v 0.047293 0.175223 0.472503
v -0.047293 0.175223 0.567090
v -0.047293 0.251711 0.567090
v 0.047293 0.175223 -0.297737
v -0.047293 0.175223 -0.392324
v -0.047293 0.175223 -0.297737
v 0.047293 0.251711 -0.297737
v 0.047293 0.251711 -0.392324
v -0.047293 0.251711 -0.392324
v -0.047293 0.251711 -0.297737
v 0.000000 0.110985 1.816270
v 0.000000 0.088436 -1.120448
v -0.008568 -0.107321 -0.840412
v -0.008568 -0.373686 1.158890
v -0.008568 -0.326681 0.038587
v -0.040800 -0.235420 0.038587
v -0.129199 -0.133421 0.038587
v -0.294665 -0.063154 0.038587
v -0.369465 0.066045 0.038587
v -0.367198 0.233777 0.038587
v -0.094696 -0.063765 -0.789384
v -0.221620 0.081291 -0.694284
v -0.287349 0.249712 -0.603824
v -0.008568 0.010624 1.421701
v -0.193420 0.040174 1.421701
v -0.276004 0.156063 1.421701
v -0.285069 0.224055 1.421701
v -0.046337 -0.194625 1.152385
v -0.205247 -0.005382 1.152385
v -0.294984 0.135031 1.152385
v -0.301279 0.223159 1.152385
v -0.056375 -0.230982 0.594018
v -0.259415 -0.130528 0.594018
v -0.369465 0.066045 0.594018
v -0.367198 0.233777 0.594018
v -0.008568 -0.369067 0.594018
v -0.064965 0.183720 -1.136555
v -0.104711 0.262199 -1.136555
v -0.264303 0.278830 1.632189
v -0.155503 0.314301 1.633734
v -0.166522 0.138207 1.816270
v -0.201545 0.068531 1.624933
v 0.000000 0.175223 1.421701
v 0.000000 0.175223 1.152385
v 0.000000 0.175223 0.594018
v 0.000000 0.175223 0.038587
v 0.000000 0.175223 -0.603824
v -0.256860 0.175223 -0.603824
v -0.347198 0.175223 0.594018
v -0.347198 0.175223 0.038587
v -0.281279 0.175223 1.152385
v -0.265069 0.175223 1.421701
v 0.000000 0.323863 1.631408
v 0.000000 0.323863 1.421701
v -0.242608 0.294430 1.421701
v -0.214263 0.278830 1.816270
v 0.000000 0.289587 -0.603824
v -0.347198 0.233777 0.594018
v -0.347198 0.233777 0.038587
v -0.281279 0.223159 1.152385
v -0.265069 0.224055 1.421701
v 0.000000 0.272153 -1.226650
v -0.267349 0.249712 -0.603824
v -0.133675 0.279877 -0.603824
v -0.121304 0.314844 1.421701
v 0.000000 0.289693 1.816270
v 0.008568 -0.373686 1.167202
v 0.008568 -0.006143 1.418547
v -0.008568 -0.373686 1.167202
v -0.008568 -0.006143 1.418547
v 0.008568 -0.373686 1.445733
v 0.008568 -0.037742 1.492060
v -0.008568 -0.373686 1.445733
v -0.008568 -0.037742 1.492060
v -0.008568 -0.251172 1.250983
v -0.008568 -0.128658 1.334765
v 0.008568 -0.251172 1.250983
v 0.008568 -0.128658 1.334765
v -0.008568 -0.251172 1.450732
v -0.008568 -0.128658 1.494653
v 0.008568 -0.251172 1.450732
v 0.008568 -0.128658 1.494653
vn 0.8660 -0.4964 -0.0601
vn -0.0000 0.9928 0.1202
vn -0.8660 -0.4964 -0.0601
vn -0.0000 0.1202 -0.9928
vn 0.5000 -0.0000 -0.8660
vn 1.0000 -0.0000 -0.0000
vn 0.5000 -0.0000 0.8660
vn -0.0000 1.0000 -0.0000
vn -0.5000 -0.0000 0.8660
vn 0.6038 -0.6445 -0.4690
vn 0.8045 -0.4489 -0.3889
vn 0.9276 -0.1888 -0.3224
vn -0.0000 -0.8196 -0.5729
vn 0.5355 -0.8194 -0.2045
vn 0.7529 -0.6525 -0.0863
vn 0.7768 -0.6240 -0.0849
vn 0.9457 -0.2880 -0.1510
vn 0.9923 0.0134 -0.1230
vn 0.9447 -0.3271 -0.0250
vn 0.4413 -0.8919 -0.0988
vn 0.8726 -0.4885 -0.0039
vn 0.8654 -0.5010 -0.0000
vn 0.9999 0.0135 -0.0000
vn 0.9450 -0.3272 -0.0027
vn 0.4425 -0.8943 0.0662
vn 0.8566 -0.4795 0.1906
vn 0.9913 0.0134 0.1306
vn 0.9946 -0.0710 0.0756
vn 0.8358 -0.5341 0.1271
vn 0.7582 -0.6366 0.1410
vn 0.9424 -0.1888 0.2760
vn 0.1248 -0.7806 0.6124
vn 0.1565 -0.9790 0.1303
vn 0.1504 -0.9198 0.3625
vn 0.8134 -0.5797 0.0484
vn 0.9827 -0.1310 0.1310
vn 0.9330 -0.2860 0.2186
vn 0.3099 0.9470 0.0843
vn 0.9170 -0.3113 0.2493
vn -0.0000 -0.9691 0.2465
vn -0.0000 -0.5645 0.8254
vn -0.0000 -1.0000 -0.0082
vn 0.8552 0.5160 -0.0499
vn 0.0615 0.9981 -0.0074
vn 0.3102 0.9499 0.0384
vn -0.9982 -0.0000 -0.0601
vn -0.9931 -0.0000 -0.1172
vn -1.0000 -0.0000 -0.0000
vn -0.0000 1.0000 -0.0033
vn -0.0000 0.9998 0.0190
vn -0.0000 -0.0000 1.0000
vn 0.4609 -0.4441 -0.7683
vn 0.6041 -0.3059 -0.7359
vn -0.9824 0.1383 0.1255
vn 0.0724 0.9967 -0.0370
vn -0.0000 0.9997 0.0248
vn -0.0000 0.9997 0.0234
vn 0.1183 0.9926 -0.0278
vn 0.2199 0.9745 -0.0443
vn -0.0000 -0.0000 -1.0000
vn 0.0741 0.9972 -0.0000
vn 0.1659 0.9858 -0.0242
vn -0.5000 -0.0000 -0.8660
vn -0.8223 -0.4165 -0.3877
vn -0.9276 -0.1888 -0.3224
vn -0.7529 -0.6525 -0.0863
vn -0.7768 -0.6240 -0.0849
vn -0.9457 -0.2880 -0.1510
vn -0.9923 0.0134 -0.1230
vn -0.7556 -0.6548 -0.0160
vn -0.3894 -0.9170 -0.0865
vn -0.8654 -0.5010 -0.0000
vn -0.9999 0.0135 -0.0000
vn -0.4425 -0.8943 0.0662
vn -0.8566 -0.4795 0.1906
vn -0.9913 0.0134 0.1306
vn -0.9946 -0.0710 0.0756
vn -0.8358 -0.5341 0.1271
vn -0.7582 -0.6366 0.1410
vn -0.1504 -0.9198 0.3625
vn -0.8134 -0.5797 0.0484
vn -0.9827 -0.1310 0.1310
vn -0.9330 -0.2860 0.2186
vn -0.3099 0.9470 0.0843
vn -0.9196 -0.2838 0.2717
vn -0.8552 0.5160 -0.0499
vn -0.0615 0.9981 -0.0074
vn -0.3102 0.9499 0.0384
vn 0.9982 -0.0000 -0.0601
vn 0.9931 -0.0000 -0.1172
vn -0.4609 -0.4441 -0.7683
vn -0.6041 -0.3059 -0.7359
vn 0.9824 0.1383 0.1255
vn -0.0724 0.9967 -0.0370
vn -0.1183 0.9926 -0.0278
vn -0.2199 0.9745 -0.0443
vn -0.0741 0.9972 -0.0000
vn -0.1659 0.9858 -0.0242
vn -0.0000 -0.9971 -0.0761
vn -0.0000 -0.9702 -0.2421
vn -0.6986 -0.5530 -0.4541
vn -0.5355 -0.8194 -0.2045
vn -0.9427 -0.3329 -0.0238
vn -0.9450 -0.3272 -0.0027
vn -0.9424 -0.1888 0.2760
vn -0.1248 -0.7806 0.6124
vn -0.0305 -0.9685 0.2470
vn -0.0000 0.5645 -0.8254
vn -0.0000 -0.0408 0.9992
vn -0.0000 -1.0000 -0.0000
vn -0.0000 0.9187 0.3949
vn -0.0000 0.0285 0.9996
vn -0.0000 -0.3375 0.9413
vn 0.0577 0.9817 0.1815
vn 0.0499 0.9833 0.1750
vn -0.0577 0.9817 0.1815
vn -0.0499 0.9833 0.1750
vn 0.6986 -0.5530 -0.4541
vn 0.8223 -0.4165 -0.3877
vn 0.9429 -0.3330 -0.0077
vn 0.3817 -0.8989 -0.2152
vn 0.8388 -0.4856 -0.2461
vn 0.9427 -0.3329 -0.0238
vn 0.7556 -0.6548 -0.0160
vn 0.3894 -0.9170 -0.0865
vn 0.9782 -0.2052 0.0309
vn 0.7482 -0.6283 0.2134
vn 0.8294 -0.5301 0.1761
vn 0.9908 -0.0708 0.1156
vn 0.9894 -0.1319 0.0600
vn 0.8101 -0.5773 0.1022
vn 0.0305 -0.9685 0.2470
vn 0.9196 -0.2838 0.2717
vn -0.9903 -0.0000 0.1393
vn -0.8045 -0.4489 -0.3889
vn -0.3817 -0.8989 -0.2152
vn -0.8388 -0.4856 -0.2461
vn -0.4413 -0.8919 -0.0988
vn -0.8726 -0.4885 -0.0039
vn -0.7482 -0.6283 0.2134
vn -0.8294 -0.5301 0.1761
vn -0.9908 -0.0708 0.1156
vn -0.9894 -0.1319 0.0600
vn -0.8101 -0.5773 0.1022
vn -0.9170 -0.3113 0.2493
vn 0.9903 -0.0000 0.1393
vn -0.6038 -0.6445 -0.4690
vn -0.9429 -0.3330 -0.0077
vn -0.9447 -0.3271 -0.0250
vn -0.9782 -0.2052 0.0309
vn -0.1565 -0.9790 0.1303
vt 0.170121 0.662044
vt 0.170121 0.667971
vt 0.054928 0.667971
vt 0.170121 0.673898
vt 0.054928 0.673898
vt 0.170121 0.679825
vt 0.054928 0.679825
vt 0.555830 0.489961
vt 0.561757 0.489961
vt 0.558793 0.495094
vt 0.555323 0.489961
vt 0.555323 0.500494
vt 0.546084 0.500494
vt 0.546084 0.489961
vt 0.536845 0.500494
vt 0.536845 0.489961
vt 0.527606 0.500494
vt 0.644137 0.418271
vt 0.648756 0.410270
vt 0.662615 0.418271
vt 0.657995 0.410270
vt 0.480906 0.489961
vt 0.480906 0.500494
vt 0.471667 0.500494
vt 0.471667 0.489961
vt 0.462428 0.500494
vt 0.661842 0.475811
vt 0.657223 0.467810
vt 0.675700 0.467810
vt 0.661842 0.459809
vt 0.631871 0.578056
vt 0.638288 0.554258
vt 0.705669 0.554560
vt 0.563827 0.224375
vt 0.587378 0.183833
vt 0.668670 0.230816
vt 0.545528 0.264906
vt 0.668332 0.250138
vt 0.638412 0.550483
vt 0.436101 0.547808
vt 0.407038 0.166425
vt 0.408253 0.136988
vt 0.403372 0.205316
vt 0.403902 0.273158
vt 0.402735 0.237189
vt 0.310962 0.578055
vt 0.311746 0.543690
vt 0.286235 0.185881
vt 0.286365 0.136988
vt 0.284829 0.234231
vt 0.282584 0.270892
vt 0.208763 0.540109
vt 0.162463 0.143412
vt 0.160989 0.198855
vt 0.160139 0.236276
vt 0.098881 0.237066
vt 0.158636 0.256072
vt 0.097858 0.204223
vt 0.187438 0.568549
vt 0.106729 0.537101
vt 0.088191 0.162065
vt 0.053914 0.214261
vt 0.009902 0.221799
vt 0.000254 0.184532
vt 0.098055 0.252475
vt 0.049766 0.261514
vt 0.681103 0.578563
vt 0.692730 0.618810
vt 0.667729 0.619010
vt 0.007582 0.254952
vt 0.000254 0.531132
vt 0.106886 0.532616
vt 0.208868 0.536770
vt 0.181353 0.353126
vt 0.302882 0.353126
vt 0.302882 0.429093
vt 0.443443 0.372892
vt 0.059181 0.367549
vt 0.181353 0.429093
vt 0.000254 0.371096
vt 0.059181 0.429093
vt 0.705818 0.665014
vt 0.687753 0.665179
vt 0.633904 0.619765
vt 0.660645 0.665436
vt 0.998453 0.273665
vt 0.999747 0.284271
vt 0.941124 0.291222
vt 0.819290 0.308420
vt 0.817739 0.295702
vt 0.698654 0.323131
vt 0.697103 0.310413
vt 0.059114 0.612571
vt 0.000527 0.619796
vt 0.000254 0.615429
vt 0.180164 0.590533
vt 0.058840 0.608204
vt 0.301454 0.582930
vt 0.179890 0.586165
vt 0.556203 0.327596
vt 0.558498 0.343894
vt 0.529250 0.350494
vt 0.723114 0.573038
vt 0.753940 0.556129
vt 0.697705 0.242209
vt 0.503259 0.353126
vt 0.532584 0.353232
vt 0.526122 0.469852
vt 0.442610 0.587205
vt 0.442884 0.591572
vt 0.561483 0.619796
vt 0.500002 0.327596
vt 0.500002 0.352618
vt 0.503014 0.489454
vt 0.562567 0.353522
vt 0.678531 0.433219
vt 0.687821 0.448618
vt 0.683445 0.448618
vt 0.683445 0.459302
vt 0.625447 0.459302
vt 0.651989 0.428753
vt 0.625447 0.426779
vt 0.633904 0.665512
vt 0.518368 0.500494
vt 0.518368 0.489961
vt 0.648756 0.426272
vt 0.453189 0.500494
vt 0.443950 0.500494
vt 0.443950 0.489961
vt 0.000254 0.699475
vt 0.000254 0.678779
vt 0.016989 0.678779
vt 0.016989 0.662044
vt 0.037685 0.662044
vt 0.037685 0.678779
vt 0.037685 0.699475
vt 0.016989 0.699475
vt 0.564473 0.052012
vt 0.669440 0.028204
vt 0.669418 0.047530
vt 0.546933 0.011147
vt 0.406629 0.107026
vt 0.587263 0.092988
vt 0.407295 0.136481
vt 0.403689 0.068073
vt 0.405486 0.000254
vt 0.403648 0.036194
vt 0.285428 0.134206
vt 0.286210 0.085318
vt 0.285707 0.036951
vt 0.284147 0.000254
vt 0.161667 0.125470
vt 0.161228 0.070009
vt 0.161077 0.032579
vt 0.159943 0.012758
vt 0.099844 0.030645
vt 0.098208 0.063463
vt 0.054459 0.052607
vt 0.000254 0.081330
vt 0.010596 0.044249
vt 0.099306 0.015224
vt 0.051194 0.005286
vt 0.586705 0.578563
vt 0.600080 0.619010
vt 0.575078 0.618810
vt 0.302882 0.505061
vt 0.181353 0.505061
vt 0.443443 0.429093
vt 0.443443 0.485295
vt 0.059181 0.490638
vt 0.000254 0.487091
vt 0.580055 0.665179
vt 0.561990 0.665014
vt 0.607163 0.665436
vt 0.001547 0.273665
vt 0.060148 0.280811
vt 0.058878 0.291222
vt 0.182265 0.295703
vt 0.180714 0.308420
vt 0.302901 0.310414
vt 0.301350 0.323131
vt 0.000254 0.624671
vt 0.000527 0.620304
vt 0.059119 0.627530
vt 0.058845 0.631897
vt 0.180173 0.649568
vt 0.179900 0.653935
vt 0.301462 0.657169
vt 0.443800 0.327596
vt 0.470754 0.350494
vt 0.441505 0.343894
vt 0.724278 0.537254
vt 0.698661 0.036681
vt 0.479976 0.469769
vt 0.473934 0.353126
vt 0.442617 0.652894
vt 0.301188 0.661537
vt 0.442891 0.648526
vt 0.561482 0.620304
vt 0.443950 0.353309
vt 0.572364 0.433219
vt 0.567450 0.448618
vt 0.563074 0.448618
vt 0.567450 0.459302
vt 0.598906 0.428753
vt 0.509129 0.500494
vt 0.509129 0.489961
vt 0.499890 0.500494
vt 0.657995 0.426272
vt 0.499383 0.489962
vt 0.499383 0.500494
vt 0.490144 0.500494
vt 0.490144 0.489962
vt 0.462428 0.489961
vt 0.671081 0.475811
vt 0.671081 0.459809
vt 0.681568 0.369861
vt 0.698304 0.369861
vt 0.698304 0.390557
vt 0.660873 0.369861
vt 0.660873 0.353126
vt 0.681568 0.353126
vt 0.660873 0.390557
vt 0.644137 0.390557
vt 0.644137 0.369861
vt 0.681568 0.390557
vt 0.681568 0.407293
vt 0.660873 0.407293
vt 0.037685 0.716211
vt 0.016989 0.716211
vt 0.054421 0.678779
vt 0.054421 0.699475
vt 0.436228 0.543894
vt 0.633549 0.526320
vt 0.313330 0.505568
vt 0.440018 0.522412
vt 0.311866 0.539897
vt 0.189547 0.506938
vt 0.087756 0.105434
vt 0.776137 0.730630
vt 0.786982 0.700019
vt 0.790516 0.701271
vt 0.810867 0.643826
vt 0.807333 0.642574
vt 0.816292 0.617286
vt 0.841827 0.556434
vt 0.835981 0.572937
vt 0.832447 0.571685
vt 0.838293 0.555182
vt 0.812634 0.573553
vt 0.615619 0.372214
vt 0.641892 0.353126
vt 0.643630 0.414044
vt 0.563074 0.410391
vt 0.589346 0.391303
vt 0.590344 0.426272
vt 0.616866 0.415902
vt 0.782396 0.522106
vt 0.785256 0.565718
vt 0.758435 0.566381
vt 0.810344 0.538644
vt 0.829335 0.591696
vt 0.825801 0.590443
vt 0.819826 0.618538
vt 0.754447 0.791851
vt 0.765292 0.761240
vt 0.768826 0.762493
vt 0.779671 0.731882
vt 0.609774 0.498861
vt 0.647841 0.467603
vt 0.656716 0.498861
vt 0.633904 0.578639
vt 0.611754 0.459809
vt 0.563074 0.494113
vt 0.575064 0.463913
vt 0.054928 0.662044
vt 0.527606 0.489961
vt 0.438492 0.569490
vt 0.000254 0.429093
vt 0.939854 0.280811
vt 0.301180 0.578563
vt 0.453189 0.489961
vt 0.008895 0.011058
vt 0.000254 0.284271
vt 0.499890 0.489961
vt 0.570443 0.426272
vt 0.754447 0.505568
vt 0.757981 0.793103
s 0
usemtl None.016
f 4/1/1 6/2/1 3/3/1
f 6/2/2 5/4/2 2/5/2
f 5/4/3 4/6/3 1/7/3
f 5/8/4 6/9/4 4/10/4
f 67/11/5 71/12/5 11/13/5
f 8/14/6 11/13/6 10/15/6
f 7/16/7 10/15/7 72/17/7
f 72/18/8 10/19/8 71/20/8
f 10/19/8 11/21/8 71/20/8
f 13/22/7 16/23/7 79/24/7
f 75/25/9 79/24/9 15/26/9
f 15/27/8 79/28/8 77/29/8
f 79/28/8 16/30/8 77/29/8
f 30/31/10 29/32/10 92/33/10
f 31/34/11 30/35/11 46/36/11
f 32/37/12 31/34/12 47/38/12
f 92/33/13 29/32/13 93/39/13
f 23/40/14 29/32/14 30/31/14
f 25/41/15 24/42/15 30/35/15
f 25/41/16 30/35/16 31/34/16
f 26/43/17 31/34/17 32/37/17
f 28/44/18 27/45/18 32/37/18
f 42/46/19 41/47/19 23/40/19
f 25/41/20 43/48/20 42/49/20
f 26/43/21 44/50/21 43/48/21
f 27/45/22 44/50/22 26/43/22
f 45/51/23 44/50/23 27/45/23
f 36/52/24 41/47/24 42/46/24
f 37/53/25 42/49/25 43/48/25
f 38/54/26 43/48/26 44/50/26
f 39/55/27 44/50/27 45/51/27
f 34/56/28 39/55/28 40/57/28
f 33/58/29 38/54/29 39/55/29
f 38/54/30 33/58/30 37/53/30
f 36/52/31 37/59/31 51/60/31
f 51/61/32 37/53/32 33/58/32
f 51/61/33 33/58/33 52/62/33
f 52/62/34 50/63/34 91/64/34
f 33/58/35 34/56/35 52/62/35
f 35/65/36 48/66/36 34/56/36
f 52/62/37 34/56/37 48/66/37
f 59/67/38 48/68/38 49/69/38
f 48/66/39 59/70/39 50/63/39
f 91/71/40 104/72/40 51/60/40
f 94/73/41 36/52/41 51/60/41
f 41/47/42 36/52/42 94/73/42
f 54/74/8 55/75/8 126/76/8
f 126/76/8 55/75/8 53/77/8
f 56/78/8 54/74/8 125/79/8
f 57/80/8 56/78/8 124/81/8
f 48/68/43 35/82/43 58/83/43
f 133/84/44 49/69/44 66/85/44
f 49/69/45 48/68/45 58/83/45
f 57/86/46 63/87/46 62/88/46
f 62/88/47 60/89/47 54/90/47
f 60/89/48 61/91/48 55/92/48
f 62/93/49 63/94/49 35/95/49
f 60/96/50 62/93/50 40/97/50
f 61/98/8 60/96/8 45/99/8
f 53/100/51 64/101/51 65/102/51
f 46/103/52 92/33/52 142/104/52
f 47/38/53 46/36/53 142/105/53
f 61/91/54 64/101/54 53/100/54
f 137/106/55 65/107/55 47/108/55
f 32/109/56 64/110/56 61/98/56
f 64/110/57 32/109/57 47/111/57
f 65/102/51 127/112/51 53/100/51
f 127/112/51 65/102/51 137/113/51
f 47/108/58 142/114/58 137/106/58
f 65/107/59 64/115/59 47/108/59
f 58/116/60 35/117/60 63/118/60
f 57/119/60 123/120/60 63/118/60
f 66/121/60 63/118/60 123/120/60
f 63/118/60 66/121/60 58/116/60
f 66/121/60 123/120/60 134/122/60
f 66/85/61 134/123/61 133/84/61
f 49/69/62 58/83/62 66/85/62
f 72/17/9 73/124/9 69/125/9
f 72/18/8 71/20/8 73/126/8
f 80/127/63 77/128/63 74/129/63
f 85/130/48 86/131/48 90/132/48
f 86/133/51 84/134/51 87/135/51
f 87/135/8 88/136/8 89/137/8
f 102/138/64 118/139/64 117/140/64
f 103/141/65 118/139/65 102/138/65
f 97/142/66 101/143/66 96/144/66
f 102/138/67 101/143/67 97/142/67
f 103/141/68 102/138/68 98/145/68
f 100/146/69 103/141/69 99/147/69
f 97/142/70 96/144/70 112/148/70
f 98/145/71 97/142/71 113/149/71
f 99/147/72 98/145/72 114/150/72
f 99/147/73 114/150/73 115/151/73
f 113/149/74 112/148/74 108/152/74
f 114/150/75 113/149/75 109/153/75
f 115/151/76 114/150/76 110/154/76
f 111/155/77 110/154/77 106/156/77
f 110/154/78 109/153/78 105/157/78
f 109/153/79 108/152/79 105/157/79
f 122/158/80 91/159/80 121/160/80
f 105/157/81 122/158/81 106/156/81
f 107/161/82 106/156/82 119/162/82
f 122/158/83 119/162/83 106/156/83
f 136/163/84 120/164/84 119/165/84
f 119/162/85 122/158/85 121/160/85
f 126/76/8 130/166/8 129/167/8
f 126/76/8 127/168/8 128/169/8
f 125/79/8 129/167/8 131/170/8
f 124/81/8 131/170/8 132/171/8
f 119/165/86 135/172/86 107/173/86
f 133/84/87 145/174/87 120/164/87
f 120/164/88 135/172/88 119/165/88
f 132/175/89 131/176/89 140/177/89
f 129/178/90 138/179/90 140/177/90
f 130/180/6 139/181/6 138/179/6
f 107/182/49 141/183/49 140/184/49
f 111/185/50 140/184/50 138/186/50
f 115/187/8 138/186/8 139/188/8
f 128/189/51 144/190/51 143/191/51
f 117/192/91 142/104/91 92/33/91
f 118/139/92 142/193/92 117/140/92
f 128/189/93 143/191/93 139/181/93
f 137/106/94 118/194/94 144/195/94
f 103/196/56 100/197/56 139/188/56
f 143/198/57 118/199/57 103/196/57
f 144/190/51 128/189/51 127/112/51
f 127/112/51 137/113/51 144/190/51
f 118/194/95 137/106/95 142/114/95
f 144/195/96 118/194/96 143/200/96
f 135/201/60 141/202/60 107/203/60
f 132/204/60 141/202/60 123/120/60
f 145/205/60 123/120/60 141/202/60
f 141/202/60 135/201/60 145/205/60
f 145/205/60 134/122/60 123/120/60
f 145/174/97 133/84/97 134/123/97
f 120/164/98 145/174/98 135/172/98
f 69/125/48 73/124/48 9/206/48
f 70/207/63 9/206/63 71/208/63
f 9/209/8 73/126/8 71/20/8
f 74/210/5 77/211/5 78/212/5
f 14/213/6 78/212/6 16/23/6
f 12/214/48 15/26/48 80/127/48
f 80/215/8 15/27/8 77/29/8
f 16/30/8 78/216/8 77/29/8
f 19/217/48 17/218/48 82/219/48
f 20/220/60 81/221/60 17/222/60
f 21/223/6 18/224/6 81/225/6
f 83/226/51 82/227/51 18/228/51
f 20/220/8 19/217/8 83/226/8
f 88/136/60 22/229/60 85/230/60
f 87/135/6 84/231/6 22/232/6
f 95/233/99 23/40/99 41/47/99
f 29/32/100 23/40/100 95/233/100
f 101/234/101 117/192/101 92/33/101
f 101/234/102 93/39/102 95/233/102
f 112/235/103 96/236/103 95/233/103
f 112/235/104 116/237/104 94/73/104
f 94/73/105 104/72/105 108/238/105
f 104/239/106 105/157/106 108/152/106
f 104/239/107 91/159/107 122/158/107
f 157/240/108 147/241/108 149/242/108
f 153/243/109 151/244/109 161/245/109
f 147/241/110 151/244/110 153/243/110
f 150/246/111 154/247/111 152/248/111
f 148/249/6 152/248/6 162/250/6
f 155/251/48 149/252/48 153/253/48
f 150/254/48 156/255/48 160/256/48
f 156/255/48 155/251/48 159/257/48
f 157/258/6 161/259/6 151/260/6
f 158/261/6 162/250/6 161/259/6
f 160/262/112 162/263/112 152/248/112
f 159/264/113 161/245/113 162/263/113
f 148/265/108 158/266/108 156/267/108
f 158/266/108 157/240/108 155/268/108
f 146/269/51 50/270/51 59/271/51
f 146/272/114 49/69/114 133/84/114
f 59/67/115 49/69/115 146/272/115
f 146/269/51 91/273/51 50/270/51
f 146/269/51 136/274/51 121/275/51
f 146/272/116 133/84/116 120/164/116
f 136/163/117 146/272/117 120/164/117
f 146/269/51 121/275/51 91/273/51
f 1/276/1 4/1/1 3/3/1
f 3/3/2 6/2/2 2/5/2
f 2/5/3 5/4/3 1/7/3
f 8/14/5 67/11/5 11/13/5
f 7/16/6 8/14/6 10/15/6
f 68/277/7 7/16/7 72/17/7
f 75/25/7 13/22/7 79/24/7
f 12/214/9 75/25/9 15/26/9
f 46/103/118 30/31/118 92/33/118
f 47/38/119 31/34/119 46/36/119
f 24/278/120 23/40/120 30/31/120
f 26/43/121 25/41/121 31/34/121
f 27/45/122 26/43/122 32/37/122
f 24/278/123 42/46/123 23/40/123
f 24/42/124 25/41/124 42/49/124
f 25/41/125 26/43/125 43/48/125
f 28/44/23 45/51/23 27/45/23
f 37/59/126 36/52/126 42/46/126
f 38/54/127 37/53/127 43/48/127
f 39/55/128 38/54/128 44/50/128
f 40/57/129 39/55/129 45/51/129
f 35/65/130 34/56/130 40/57/130
f 34/56/131 33/58/131 39/55/131
f 91/64/132 51/61/132 52/62/132
f 52/62/133 48/66/133 50/63/133
f 104/72/41 94/73/41 51/60/41
f 116/237/42 41/47/42 94/73/42
f 125/79/8 54/74/8 126/76/8
f 127/168/8 126/76/8 53/77/8
f 124/81/8 56/78/8 125/79/8
f 123/279/8 57/80/8 124/81/8
f 56/280/46 57/86/46 62/88/46
f 56/280/47 62/88/47 54/90/47
f 54/90/48 60/89/48 55/92/48
f 40/97/49 62/93/49 35/95/49
f 45/99/50 60/96/50 40/97/50
f 28/281/8 61/98/8 45/99/8
f 55/92/134 61/91/134 53/100/134
f 28/281/56 32/109/56 61/98/56
f 68/277/9 72/17/9 69/125/9
f 76/282/63 80/127/63 74/129/63
f 89/137/48 85/130/48 90/132/48
f 90/132/51 86/133/51 87/135/51
f 90/132/8 87/135/8 89/137/8
f 101/143/135 102/138/135 117/140/135
f 98/145/136 102/138/136 97/142/136
f 99/147/137 103/141/137 98/145/137
f 113/149/138 97/142/138 112/148/138
f 114/150/139 98/145/139 113/149/139
f 100/146/73 99/147/73 115/151/73
f 109/153/140 113/149/140 108/152/140
f 110/154/141 114/150/141 109/153/141
f 111/155/142 115/151/142 110/154/142
f 107/161/143 111/155/143 106/156/143
f 106/156/144 110/154/144 105/157/144
f 136/283/145 119/162/145 121/160/145
f 125/79/8 126/76/8 129/167/8
f 130/166/8 126/76/8 128/169/8
f 124/81/8 125/79/8 131/170/8
f 123/279/8 124/81/8 132/171/8
f 141/284/89 132/175/89 140/177/89
f 131/176/90 129/178/90 140/177/90
f 129/178/6 130/180/6 138/179/6
f 111/185/49 107/182/49 140/184/49
f 115/187/50 111/185/50 138/186/50
f 100/197/8 115/187/8 139/188/8
f 130/180/146 128/189/146 139/181/146
f 143/198/56 103/196/56 139/188/56
f 70/207/48 69/125/48 9/206/48
f 67/285/63 70/207/63 71/208/63
f 14/213/5 74/210/5 78/212/5
f 13/22/6 14/213/6 16/23/6
f 76/282/48 12/214/48 80/127/48
f 83/226/48 19/217/48 82/219/48
f 19/217/60 20/220/60 17/222/60
f 20/220/6 21/223/6 81/225/6
f 21/223/51 83/226/51 18/228/51
f 21/223/8 20/220/8 83/226/8
f 89/137/60 88/136/60 85/230/60
f 88/136/6 87/135/6 22/232/6
f 116/237/99 95/233/99 41/47/99
f 93/39/100 29/32/100 95/233/100
f 93/39/147 101/234/147 92/33/147
f 96/236/148 101/234/148 95/233/148
f 116/237/149 112/235/149 95/233/149
f 108/238/150 112/235/150 94/73/150
f 105/157/151 104/239/151 122/158/151
f 155/268/108 157/240/108 149/242/108
f 159/264/109 153/243/109 161/245/109
f 149/242/110 147/241/110 153/243/110
f 148/249/111 150/246/111 152/248/111
f 158/261/6 148/249/6 162/250/6
f 159/257/48 155/251/48 153/253/48
f 154/286/48 150/254/48 160/256/48
f 160/256/48 156/255/48 159/257/48
f 147/287/6 157/258/6 151/260/6
f 157/258/6 158/261/6 161/259/6
f 154/247/112 160/262/112 152/248/112
f 160/262/113 159/264/113 162/263/113
f 150/288/108 148/265/108 156/267/108
f 156/267/108 158/266/108 155/268/108
