# Blender 3.6.0
# www.blender.org
o ShipSails1.001_Plane.005
v 0.000000 1.116897 -0.003229
v -0.013659 1.096199 0.008229
v 0.013659 1.096199 0.008229
v 0.000000 1.641152 0.943812
v -0.013659 1.620454 0.955270
v 0.013659 1.620454 0.955270
v 0.000000 -0.004534 -0.000459
v -0.013659 -0.028001 0.002544
v 0.013659 -0.028001 0.002544
v 0.000000 0.167102 1.340745
v -0.013659 0.143635 1.343748
v 0.013659 0.143635 1.343748
v 0.000000 0.007710 -0.019486
v -0.018212 0.007710 0.012058
v 0.018212 0.007710 0.012058
v 0.000000 2.123534 -0.019486
v -0.018212 2.123534 0.012058
v 0.018212 2.123534 0.012058
vn 0.8660 0.4374 -0.2422
vn -0.0000 -0.8749 0.4843
vn -0.8660 0.4374 -0.2422
vn -0.0000 0.4843 0.8749
vn 0.8660 0.4960 -0.0635
vn -0.0000 -0.9919 0.1269
vn -0.8660 0.4960 -0.0635
vn -0.0000 0.1269 0.9919
vn 0.8660 -0.0000 -0.5000
vn -0.0000 -0.0000 1.0000
vn -0.8660 -0.0000 -0.5000
vn -0.0000 1.0000 -0.0000
vt 0.733840 0.528073
vt 0.733840 0.533784
vt 0.507556 0.533785
vt 0.507556 0.528073
vt 0.507556 0.522363
vt 0.733840 0.522362
vt 0.507556 0.516652
vt 0.513162 0.451942
vt 0.518108 0.454797
vt 0.513162 0.457652
vt 0.790202 0.551578
vt 0.507556 0.551580
vt 0.507556 0.545869
vt 0.790202 0.545868
vt 0.507556 0.540157
vt 0.790202 0.540157
vt 0.507556 0.534445
vt 0.507556 0.464684
vt 0.512501 0.467539
vt 0.507556 0.470395
vt 0.877325 0.179906
vt 0.877325 0.619166
vt 0.869658 0.619164
vt 0.869658 0.179905
vt 0.861991 0.619162
vt 0.861991 0.179903
vt 0.854324 0.619160
vt 0.507556 0.443667
vt 0.514150 0.447474
vt 0.507556 0.451281
vt 0.733840 0.516652
vt 0.790202 0.534447
vt 0.854324 0.179901
s 0
f 3/1/1 1/2/1 4/3/1
f 3/1/2 6/4/2 5/5/2
f 2/6/3 5/5/3 4/7/3
f 5/8/4 6/9/4 4/10/4
f 7/11/5 10/12/5 12/13/5
f 9/14/6 12/13/6 11/15/6
f 8/16/7 11/15/7 10/17/7
f 11/18/8 12/19/8 10/20/8
f 13/21/9 16/22/9 18/23/9
f 15/24/10 18/23/10 17/25/10
f 14/26/11 17/25/11 16/27/11
f 17/28/12 18/29/12 16/30/12
f 6/4/1 3/1/1 4/3/1
f 2/6/2 3/1/2 5/5/2
f 1/31/3 2/6/3 4/7/3
f 9/14/5 7/11/5 12/13/5
f 8/16/6 9/14/6 11/15/6
f 7/32/7 8/16/7 10/17/7
f 15/24/9 13/21/9 18/23/9
f 14/26/10 15/24/10 17/25/10
f 13/33/11 14/26/11 16/27/11
