# Blender 3.6.0
# www.blender.org
o ShipSails1.001_Plane.005
v 0.000000 0.011463 -0.017578
v -0.028243 0.011463 0.031341
v 0.028243 0.011463 0.031341
v 0.000000 1.541828 -0.017578
v -0.028243 1.541828 0.031341
v 0.028243 1.541828 0.031341
v 0.000000 1.541828 -0.005995
v -0.018212 1.541828 0.025549
v 0.018212 1.541828 0.025549
v 0.000000 3.072193 -0.005995
v -0.018212 3.072193 0.025549
v 0.018212 3.072193 0.025549
v 0.000000 1.785997 0.000354
v -0.013659 1.765298 0.011812
v 0.013659 1.765298 0.011812
v 0.000000 2.237608 0.816169
v -0.013659 2.216909 0.827626
v 0.013659 2.216909 0.827626
v 0.000000 -0.000791 0.010321
v -0.013659 -0.023791 0.015863
v 0.013659 -0.023791 0.015863
v 0.000000 0.210224 0.886031
v -0.013659 0.187224 0.891573
v 0.013659 0.187224 0.891573
vn 0.8660 -0.0000 -0.5000
vn -0.0000 -0.0000 1.0000
vn -0.8660 -0.0000 -0.5000
vn -0.0000 1.0000 -0.0000
vn 0.8660 0.4374 -0.2422
vn -0.0000 -0.8749 0.4843
vn -0.8660 0.4374 -0.2422
vn 0.8660 0.4861 -0.1171
vn -0.0000 -0.9722 0.2343
vn -0.8660 0.4861 -0.1171
vn -0.0000 0.2343 0.9722
vn -0.0000 0.4843 0.8749
vt 0.339526 0.365012
vt 0.339527 0.684931
vt 0.327718 0.684931
vt 0.327718 0.365012
vt 0.315910 0.684931
vt 0.315910 0.365012
vt 0.304101 0.684931
vt 0.507556 0.408084
vt 0.517782 0.402180
vt 0.517782 0.413988
vt 0.363030 0.365012
vt 0.363030 0.684932
vt 0.355416 0.684932
vt 0.355416 0.365012
vt 0.347802 0.684932
vt 0.347801 0.365012
vt 0.340187 0.684932
vt 0.507556 0.427117
vt 0.514150 0.430925
vt 0.507556 0.434732
vt 0.702488 0.515991
vt 0.507556 0.515990
vt 0.507556 0.510280
vt 0.702488 0.510280
vt 0.507556 0.504569
vt 0.702488 0.498859
vt 0.702488 0.504569
vt 0.757747 0.752107
vt 0.757747 0.757818
vt 0.569442 0.757818
vt 0.569442 0.752107
vt 0.569442 0.746397
vt 0.757747 0.740686
vt 0.757747 0.746397
vt 0.507556 0.474694
vt 0.512501 0.477550
vt 0.507556 0.480405
vt 0.514810 0.436344
vt 0.519756 0.433489
vt 0.519756 0.439199
vt 0.304102 0.365012
vt 0.340187 0.365012
vt 0.507556 0.498859
vt 0.569442 0.740686
s 0
f 1/1/1 4/2/1 6/3/1
f 3/4/2 6/3/2 5/5/2
f 2/6/3 5/5/3 4/7/3
f 5/8/4 6/9/4 4/10/4
f 7/11/1 10/12/1 12/13/1
f 9/14/2 12/13/2 11/15/2
f 8/16/3 11/15/3 10/17/3
f 11/18/4 12/19/4 10/20/4
f 13/21/5 16/22/5 18/23/5
f 15/24/6 18/23/6 17/25/6
f 13/26/7 14/27/7 17/25/7
f 21/28/8 19/29/8 22/30/8
f 21/28/9 24/31/9 23/32/9
f 19/33/10 20/34/10 23/32/10
f 23/35/11 24/36/11 22/37/11
f 17/38/12 18/39/12 16/40/12
f 3/4/1 1/1/1 6/3/1
f 2/6/2 3/4/2 5/5/2
f 1/41/3 2/6/3 4/7/3
f 9/14/1 7/11/1 12/13/1
f 8/16/2 9/14/2 11/15/2
f 7/42/3 8/16/3 10/17/3
f 15/24/5 13/21/5 18/23/5
f 14/27/6 15/24/6 17/25/6
f 16/43/7 13/26/7 17/25/7
f 24/31/8 21/28/8 22/30/8
f 20/34/9 21/28/9 23/32/9
f 22/44/10 19/33/10 23/32/10
