# Blender 3.6.0
# www.blender.org
o ShipSails1.001_Plane.005
v 0.000000 0.648059 1.478250
v 0.000000 1.711627 1.469219
v 0.000000 2.208293 2.374219
v 0.000000 0.805247 2.740064
v 0.000000 1.214927 1.507316
v 0.000000 1.933805 1.927581
v 0.000000 1.447708 2.531189
v 0.000000 0.744401 2.104696
v -0.250046 1.307962 2.011468
v -0.155516 1.423362 2.413199
v -0.155516 1.836111 1.940721
v -0.164581 2.259805 1.483019
v 0.000000 2.715857 1.471190
v 0.000000 1.803487 1.464963
v 0.000000 2.267457 2.343080
v -0.164581 2.047091 1.896630
v -0.164581 2.479905 1.899584
v -0.155516 1.240776 1.653314
v -0.155516 0.843264 2.087921
v -0.095879 0.958979 2.489844
v -0.209629 1.202166 2.164801
v -0.209629 1.158207 1.890462
v -0.095879 0.804866 1.693218
v -0.095879 1.990234 2.294368
v -0.209629 1.518721 2.096385
v -0.095879 1.735809 1.563207
v -0.209629 1.424606 1.854778
v -0.219575 1.478207 1.988663
v -0.220717 1.343766 2.136109
v -0.223806 1.178967 2.032691
v -0.213517 1.281999 1.873067
v -0.164581 2.509515 1.596651
v -0.164581 2.263498 2.091239
v -0.164581 2.004170 1.602632
v -0.264890 2.262267 1.759744
v 0.000000 0.648059 1.478250
v 0.000000 1.711627 1.469219
v 0.000000 2.208293 2.374219
v 0.000000 0.805247 2.740064
v 0.000000 1.214927 1.507316
v 0.000000 1.933805 1.927581
v 0.000000 1.447708 2.531189
v 0.000000 0.744401 2.104696
v -0.250046 1.307962 2.011468
v -0.155516 1.423362 2.413199
v -0.155516 1.836111 1.940721
v -0.164581 2.259805 1.483019
v 0.000000 2.715857 1.471190
v 0.000000 1.803487 1.464963
v 0.000000 2.267457 2.343080
v -0.164581 2.047091 1.896630
v -0.164581 2.479905 1.899584
v -0.155516 1.240776 1.653314
v -0.155516 0.843264 2.087921
v -0.095879 0.958979 2.489844
v -0.209629 1.202166 2.164801
v -0.209629 1.158207 1.890462
v -0.095879 0.804866 1.693218
v -0.095879 1.990234 2.294368
v -0.209629 1.518721 2.096385
v -0.095879 1.735809 1.563207
v -0.209629 1.424606 1.854778
v -0.219575 1.478207 1.988663
v -0.220717 1.343766 2.136109
v -0.223806 1.178967 2.032691
v -0.213517 1.281999 1.873067
v -0.164581 2.509515 1.596651
v -0.164581 2.263498 2.091239
v -0.164581 2.004170 1.602632
v -0.264890 2.262267 1.759744
vn -0.8323 0.4722 -0.2902
vn -0.1967 0.8823 -0.4277
vn -0.9678 -0.0646 -0.2433
vn -0.8932 0.1390 0.4277
vn -0.7716 0.2635 -0.5789
vn -0.7355 -0.6704 0.0979
vn -0.9276 0.2478 0.2798
vn -0.7464 -0.4450 0.4948
vn -0.6111 0.2235 0.7594
vn -0.9672 -0.0062 -0.2541
vn -0.7870 -0.6098 0.0938
vn -0.5340 -0.7881 0.3061
vn -0.9712 -0.0281 0.2366
vn -0.8792 -0.4744 0.0454
vn -0.6088 0.0525 0.7916
vn -0.9750 -0.1760 0.1355
vn -0.9577 -0.0772 0.2774
vn -0.9624 -0.1872 0.1967
vn -0.9501 -0.1548 -0.2707
vn -0.9626 -0.2418 -0.1219
vn -0.9756 -0.2094 -0.0667
vn -0.9071 0.0216 -0.4203
vn -0.5366 -0.8439 0.0010
vn -0.6897 -0.1590 -0.7065
vn -0.9835 0.1792 0.0234
vn -0.7869 0.1247 0.6043
vn -0.9670 0.1455 0.2090
vn -0.5291 0.8070 -0.2625
vn -0.9742 0.1068 0.1986
vn -0.9761 0.2036 0.0759
vn -0.5260 0.7977 -0.2950
vn -0.7059 -0.0542 -0.7062
vn -0.9658 0.1682 -0.1973
vn -0.6879 -0.0489 -0.7241
vn -0.9495 0.0583 -0.3082
vn -0.9783 0.1569 -0.1355
vn -0.7612 0.6455 0.0631
vn -0.7578 0.4326 0.4884
vn -0.7867 -0.2616 -0.5591
vn -0.9289 -0.1569 -0.3353
vn -0.9258 -0.2528 0.2811
vn -0.9285 0.1538 -0.3379
vn -0.9168 0.3976 0.0389
vn -0.9183 -0.3917 0.0572
vn 0.8323 -0.4722 0.2902
vn 0.1967 -0.8823 0.4277
vn 0.9678 0.0646 0.2433
vn 0.8932 -0.1390 -0.4277
vn 0.7716 -0.2635 0.5789
vn 0.7355 0.6704 -0.0979
vn 0.9276 -0.2478 -0.2798
vn 0.7464 0.4450 -0.4948
vn 0.6111 -0.2235 -0.7594
vn 0.9672 0.0062 0.2541
vn 0.7870 0.6098 -0.0938
vn 0.5340 0.7881 -0.3061
vn 0.9712 0.0281 -0.2366
vn 0.8792 0.4744 -0.0454
vn 0.6088 -0.0525 -0.7916
vn 0.9750 0.1760 -0.1355
vn 0.9577 0.0772 -0.2774
vn 0.9624 0.1872 -0.1967
vn 0.9501 0.1548 0.2707
vn 0.9626 0.2418 0.1219
vn 0.9756 0.2094 0.0667
vn 0.9071 -0.0216 0.4203
vn 0.5366 0.8439 -0.0010
vn 0.6897 0.1590 0.7065
vn 0.9835 -0.1792 -0.0234
vn 0.7869 -0.1247 -0.6043
vn 0.9670 -0.1455 -0.2090
vn 0.5291 -0.8070 0.2625
vn 0.9742 -0.1068 -0.1986
vn 0.9761 -0.2036 -0.0759
vn 0.5260 -0.7977 0.2950
vn 0.7059 0.0542 0.7062
vn 0.9658 -0.1682 0.1973
vn 0.6879 0.0489 0.7241
vn 0.9495 -0.0583 0.3082
vn 0.9783 -0.1569 0.1355
vn 0.7612 -0.6455 -0.0631
vn 0.7578 -0.4326 -0.4884
vn 0.7867 0.2616 0.5591
vn 0.9289 0.1569 0.3353
vn 0.9258 0.2528 -0.2811
vn 0.9285 -0.1538 0.3379
vn 0.9168 -0.3976 -0.0389
vn 0.9183 0.3917 -0.0572
vt 0.000330 0.628549
vt 0.032297 0.523723
vt 0.087011 0.564269
vt 0.099599 0.456594
vt 0.053063 0.419284
vt 0.161817 0.487028
vt 0.159433 0.454237
vt 0.187230 0.475305
vt 0.303441 0.628549
vt 0.162464 0.620184
vt 0.222296 0.558554
vt 0.363823 0.910894
vt 0.409624 0.827243
vt 0.437823 0.867615
vt 0.449895 0.740686
vt 0.506853 0.827243
vt 0.458238 0.827243
vt 0.460833 0.854158
vt 0.486437 0.867615
vt 0.466022 0.907988
vt 0.568781 0.910894
vt 0.162892 0.563933
vt 0.163319 0.507681
vt 0.131459 0.482138
vt 0.268682 0.365012
vt 0.282236 0.496814
vt 0.211140 0.442928
vt 0.222778 0.502248
vt 0.163186 0.525133
vt 0.192808 0.533118
vt 0.179824 0.506173
vt 0.155547 0.400792
vt 0.142202 0.510267
vt 0.125165 0.535975
vt 0.097808 0.515702
s 0
f 3/1/1 6/2/1 24/3/1
f 26/4/2 6/2/2 2/5/2
f 31/6/3 18/7/3 22/8/3
f 4/9/4 7/10/4 20/11/4
f 13/12/5 12/13/5 32/14/5
f 14/15/6 16/16/6 34/17/6
f 35/18/7 33/19/7 17/20/7
f 33/19/8 16/16/8 15/21/8
f 10/22/9 7/10/9 24/3/9
f 31/6/10 9/23/10 27/24/10
f 1/25/11 8/26/11 23/27/11
f 19/28/12 8/26/12 20/11/12
f 29/29/13 9/23/13 21/30/13
f 8/26/14 4/9/14 20/11/14
f 7/10/15 10/22/15 20/11/15
f 30/31/16 19/28/16 21/30/16
f 20/11/17 10/22/17 21/30/17
f 21/30/18 19/28/18 20/11/18
f 23/27/19 22/8/19 18/7/19
f 19/28/20 22/8/20 23/27/20
f 30/31/21 9/23/21 22/8/21
f 5/32/22 1/25/22 23/27/22
f 8/26/23 19/28/23 23/27/23
f 5/32/24 23/27/24 18/7/24
f 28/33/25 9/23/25 25/34/25
f 7/10/26 3/1/26 24/3/26
f 10/22/27 24/3/27 25/34/27
f 6/2/28 11/35/28 24/3/28
f 29/29/29 10/22/29 25/34/29
f 24/3/30 11/35/30 25/34/30
f 11/35/31 6/2/31 26/4/31
f 2/5/32 5/32/32 26/4/32
f 11/35/33 26/4/33 27/24/33
f 5/32/34 18/7/34 26/4/34
f 26/4/35 18/7/35 27/24/35
f 28/33/36 11/35/36 27/24/36
f 9/23/36 28/33/36 27/24/36
f 11/35/25 28/33/25 25/34/25
f 9/23/29 29/29/29 25/34/29
f 10/22/13 29/29/13 21/30/13
f 19/28/21 30/31/21 22/8/21
f 9/23/16 30/31/16 21/30/16
f 18/7/10 31/6/10 27/24/10
f 9/23/3 31/6/3 22/8/3
f 17/20/37 13/12/37 32/14/37
f 17/20/38 33/19/38 15/21/38
f 12/13/39 14/15/39 34/17/39
f 12/13/40 34/17/40 35/18/40
f 16/16/41 33/19/41 35/18/41
f 32/14/42 12/13/42 35/18/42
f 17/20/43 32/14/43 35/18/43
f 34/17/44 16/16/44 35/18/44
f 38/1/45 59/3/45 41/2/45
f 61/4/46 37/5/46 41/2/46
f 66/6/47 57/8/47 53/7/47
f 39/9/48 55/11/48 42/10/48
f 48/12/49 67/14/49 47/13/49
f 49/15/50 69/17/50 51/16/50
f 70/18/51 52/20/51 68/19/51
f 68/19/52 50/21/52 51/16/52
f 45/22/53 59/3/53 42/10/53
f 66/6/54 62/24/54 44/23/54
f 36/25/55 58/27/55 43/26/55
f 54/28/56 55/11/56 43/26/56
f 64/29/57 56/30/57 44/23/57
f 43/26/58 55/11/58 39/9/58
f 42/10/59 55/11/59 45/22/59
f 65/31/60 56/30/60 54/28/60
f 55/11/61 56/30/61 45/22/61
f 56/30/62 55/11/62 54/28/62
f 58/27/63 53/7/63 57/8/63
f 54/28/64 58/27/64 57/8/64
f 65/31/65 57/8/65 44/23/65
f 40/32/66 58/27/66 36/25/66
f 43/26/67 58/27/67 54/28/67
f 40/32/68 53/7/68 58/27/68
f 63/33/69 60/34/69 44/23/69
f 42/10/70 59/3/70 38/1/70
f 45/22/71 60/34/71 59/3/71
f 41/2/72 59/3/72 46/35/72
f 64/29/73 60/34/73 45/22/73
f 59/3/74 60/34/74 46/35/74
f 46/35/75 61/4/75 41/2/75
f 37/5/76 61/4/76 40/32/76
f 46/35/77 62/24/77 61/4/77
f 40/32/78 61/4/78 53/7/78
f 61/4/79 62/24/79 53/7/79
f 63/33/80 62/24/80 46/35/80
f 44/23/80 62/24/80 63/33/80
f 46/35/69 60/34/69 63/33/69
f 44/23/73 60/34/73 64/29/73
f 45/22/57 56/30/57 64/29/57
f 54/28/65 57/8/65 65/31/65
f 44/23/60 56/30/60 65/31/60
f 53/7/54 62/24/54 66/6/54
f 44/23/47 57/8/47 66/6/47
f 52/20/81 67/14/81 48/12/81
f 52/20/82 50/21/82 68/19/82
f 47/13/83 69/17/83 49/15/83
f 47/13/84 70/18/84 69/17/84
f 51/16/85 70/18/85 68/19/85
f 67/14/86 70/18/86 47/13/86
f 52/20/87 70/18/87 67/14/87
f 69/17/88 70/18/88 51/16/88
