# Blender 3.6.0
# www.blender.org
o SloopSails1.001_Circle.012
v -0.068254 0.494515 -0.264324
v -0.010000 1.400617 0.007549
v -0.010000 0.355406 -1.009923
v -0.099900 0.475901 -0.615774
v -0.068254 0.920002 -0.493811
v -0.068254 0.935200 -0.170971
v -0.095365 0.927601 -0.332391
v -0.095365 0.697951 -0.554793
v -0.126785 0.715649 -0.383593
v -0.095365 0.714857 -0.217648
v -0.095365 0.485208 -0.440049
v -0.095365 0.817825 -0.438702
v -0.095365 0.825424 -0.277282
v -0.095365 0.605082 -0.323958
v -0.095365 0.595775 -0.499683
v -0.068254 0.494515 -0.264324
v -0.010000 1.400617 0.007549
v -0.010000 0.355406 -1.009923
v -0.099900 0.475901 -0.615774
v -0.068254 0.920002 -0.493811
v -0.068254 0.935200 -0.170971
v -0.095365 0.927601 -0.332391
v -0.095365 0.697951 -0.554793
v -0.126785 0.715649 -0.383593
v -0.095365 0.714857 -0.217648
v -0.095365 0.485208 -0.440049
v -0.095365 0.817825 -0.438702
v -0.095365 0.825424 -0.277282
v -0.095365 0.605082 -0.323958
v -0.095365 0.595775 -0.499683
vn 0.9848 -0.0609 -0.1625
vn 0.9651 -0.0875 0.2469
vn 0.9831 -0.0869 -0.1610
vn 0.9996 -0.0135 -0.0251
vn 0.9405 -0.2932 0.1718
vn 0.9237 -0.2021 0.3254
vn 0.9713 -0.1655 0.1709
vn 0.9753 0.1536 -0.1586
vn 0.9620 -0.1900 0.1962
vn 0.9810 0.0920 0.1705
vn 0.9673 0.1765 -0.1823
vn 0.9775 -0.1001 -0.1856
vn -0.9848 0.0609 0.1625
vn -0.9651 0.0875 -0.2469
vn -0.9831 0.0869 0.1610
vn -0.9996 0.0135 0.0251
vn -0.9405 0.2932 -0.1718
vn -0.9237 0.2021 -0.3254
vn -0.9713 0.1655 -0.1709
vn -0.9753 -0.1536 0.1586
vn -0.9620 0.1900 -0.1962
vn -0.9810 -0.0920 -0.1705
vn -0.9673 -0.1765 0.1823
vn -0.9775 0.1001 0.1856
vt 0.742920 0.544804
vt 0.463287 0.638252
vt 0.429224 0.579793
vt 0.266250 0.575073
vt 0.137339 0.628811
vt 0.000194 0.521334
vt 0.385383 0.635996
vt 0.174968 0.692093
vt 0.222409 0.631275
vt 0.395161 0.521334
vt 0.351320 0.577537
vt 0.337942 0.696814
vt 0.212597 0.755375
vt 0.260038 0.694557
vt 0.307479 0.633739
s 0
f 2/1/1 6/2/1 7/3/1
f 8/4/2 4/5/2 3/6/2
f 7/3/3 6/2/3 13/7/3
f 11/8/4 4/5/4 15/9/4
f 5/10/5 2/1/5 7/3/5
f 5/10/6 8/4/6 3/6/6
f 8/4/7 5/10/7 12/11/7
f 10/12/8 1/13/8 14/14/8
f 7/3/9 9/15/9 12/11/9
f 8/4/10 9/15/10 15/9/10
f 11/8/11 9/15/11 14/14/11
f 10/12/12 9/15/12 13/7/12
f 9/15/9 8/4/9 12/11/9
f 5/10/7 7/3/7 12/11/7
f 6/2/3 10/12/3 13/7/3
f 9/15/12 7/3/12 13/7/12
f 1/13/8 11/8/8 14/14/8
f 9/15/11 10/12/11 14/14/11
f 9/15/10 11/8/10 15/9/10
f 4/5/4 8/4/4 15/9/4
f 17/1/13 22/3/13 21/2/13
f 23/4/14 18/6/14 19/5/14
f 22/3/15 28/7/15 21/2/15
f 26/8/16 30/9/16 19/5/16
f 20/10/17 22/3/17 17/1/17
f 20/10/18 18/6/18 23/4/18
f 23/4/19 27/11/19 20/10/19
f 25/12/20 29/14/20 16/13/20
f 22/3/21 27/11/21 24/15/21
f 23/4/22 30/9/22 24/15/22
f 26/8/23 29/14/23 24/15/23
f 25/12/24 28/7/24 24/15/24
f 24/15/21 27/11/21 23/4/21
f 20/10/19 27/11/19 22/3/19
f 21/2/15 28/7/15 25/12/15
f 24/15/24 28/7/24 22/3/24
f 16/13/20 29/14/20 26/8/20
f 24/15/23 29/14/23 25/12/23
f 24/15/22 30/9/22 26/8/22
f 19/5/16 30/9/16 23/4/16
