# Blender 3.6.0
# www.blender.org
mtllib Cannon.mtl
o SchoonerCannon0.001_Cylinder.002
v -0.067106 -0.004777 -0.035799
v -0.067106 -0.004777 -0.051148
v 0.040300 0.072374 -0.035799
v -0.018888 0.072374 -0.035799
v -0.018888 0.072374 -0.051148
v 0.040300 0.072374 -0.051148
v 0.040300 -0.004777 -0.035799
v -0.018888 0.043016 -0.035799
v -0.018888 0.043016 -0.051148
v 0.040300 -0.004777 -0.051148
v -0.067106 0.043016 -0.035799
v -0.067106 0.043016 -0.051148
v 0.040300 0.072374 0.022900
v -0.018888 0.072374 0.022900
v -0.018888 0.072374 0.038249
v 0.040300 0.072374 0.038249
v 0.040300 -0.004777 0.022900
v -0.018888 0.043016 0.022900
v -0.018888 0.043016 0.038249
v 0.040300 -0.004777 0.038249
v -0.067106 -0.004777 0.022900
v -0.067106 -0.004777 0.038249
v -0.067106 0.043016 0.022900
v -0.067106 0.043016 0.038249
v 0.033809 0.075272 -0.006449
v 0.137819 0.071167 -0.006449
v 0.033809 0.061130 -0.030945
v 0.137819 0.059077 -0.027390
v 0.033809 0.032845 -0.030945
v 0.137819 0.034897 -0.027390
v 0.033809 0.018703 -0.006449
v 0.137819 0.022808 -0.006449
v 0.033809 0.032845 0.018046
v 0.137819 0.034897 0.014491
v 0.033809 0.061130 0.018046
v 0.137819 0.059077 0.014491
v -0.003925 0.080877 -0.006449
v -0.003925 0.063932 -0.035799
v -0.003925 0.030043 -0.035799
v -0.003925 0.013098 -0.006449
v -0.003925 0.030043 0.022900
v -0.003925 0.063932 0.022900
v -0.048678 0.080877 -0.006449
v -0.048678 0.063932 -0.035799
v -0.048678 0.030043 -0.035799
v -0.048678 0.013098 -0.006449
v -0.048678 0.030043 0.022900
v -0.048678 0.063932 0.022900
v -0.067106 0.075776 -0.006449
v -0.067106 0.061382 -0.031382
v -0.067106 0.032593 -0.031382
v -0.067106 0.018198 -0.006449
v -0.067106 0.032593 0.018483
v -0.067106 0.061382 0.018483
vn -0.3015 0.3015 -0.9045
vn -0.5774 0.5774 -0.5774
vn -0.5774 0.5774 0.5774
vn 0.5774 0.5774 0.5774
vn 0.7071 -0.0000 0.7071
vn 0.7071 -0.0000 -0.7071
vn 0.5774 0.5774 -0.5774
vn -0.3015 0.3015 0.9045
vn -0.7071 -0.0000 0.7071
vn -0.7071 -0.0000 -0.7071
vn 0.6248 0.7808 -0.0000
vn 0.6248 0.3904 -0.6762
vn 0.0950 0.4978 -0.8621
vn 0.6248 -0.3904 -0.6762
vn 0.0950 -0.4978 -0.8621
vn 0.6248 -0.7808 -0.0000
vn 0.0950 -0.9955 -0.0000
vn 0.6248 -0.3904 0.6762
vn 0.6248 0.3904 0.6762
vn 0.0950 0.9955 -0.0000
vn 0.0950 0.4977 0.8621
vn 0.0720 0.9974 -0.0000
vn 0.0720 0.4987 0.8638
vn -0.1292 0.9916 -0.0000
vn -0.1292 0.4958 0.8588
vn 0.0720 -0.4987 0.8638
vn 0.0950 -0.4977 0.8621
vn 0.0720 -0.9974 -0.0000
vn 0.0720 -0.4987 -0.8638
vn 0.0720 0.4987 -0.8638
vn -0.7093 0.7049 -0.0000
vn -0.7093 0.3525 0.6105
vn -0.1292 -0.4958 0.8588
vn -0.1292 -0.9916 -0.0000
vn -0.1292 -0.4958 -0.8588
vn -0.1292 0.4958 -0.8588
vn -0.7093 -0.3525 -0.6105
vn -0.7093 -0.3524 0.6105
vn -0.7093 -0.7049 -0.0000
vn -0.7093 0.3525 -0.6105
vt 0.919704 0.291718
vt 0.919704 0.145336
vt 0.966301 0.145336
vt 0.919704 0.380843
vt 0.966301 0.380843
vt 0.966301 0.560525
vt 0.966301 0.794740
vt 0.919704 0.794740
vt 0.812838 0.727110
vt 0.578624 0.727110
vt 0.723713 0.547428
vt 0.966301 0.291718
vt 0.326311 0.888013
vt 0.146629 0.888013
vt 0.146629 0.798888
vt 0.326311 0.653799
vt 0.000247 0.653799
vt 0.578624 0.401047
vt 0.872612 0.145336
vt 0.919210 0.145336
vt 0.919210 0.291718
vt 0.872612 0.560525
vt 0.872612 0.380843
vt 0.919210 0.380843
vt 0.919210 0.794740
vt 0.872612 0.794740
vt 0.654749 0.200730
vt 0.872118 0.278751
vt 0.672067 0.400553
vt 0.872612 0.291718
vt 0.561019 0.979862
vt 0.326805 0.979862
vt 0.471894 0.800180
vt 0.872612 0.000247
vt 0.919210 0.000247
vt 0.919704 0.000247
vt 0.966301 0.000247
vt 0.723713 0.401047
vt 0.000247 0.798888
vt 0.578624 0.075700
vt 0.702550 0.000247
vt 0.326805 0.653799
vt 0.471894 0.653799
vt 0.295027 0.635516
vt 0.219128 0.638245
vt 0.201590 0.307781
vt 0.143111 0.644137
vt 0.111331 0.312890
vt 0.066095 0.653305
vt 0.020100 0.322602
vt 0.557493 0.318439
vt 0.522474 0.646017
vt 0.446234 0.639384
vt 0.936183 0.795234
vt 0.999753 0.831936
vt 0.872612 0.905341
vt 0.370748 0.635887
vt 0.290876 0.305690
vt 0.379891 0.306201
vt 0.290754 0.193826
vt 0.382794 0.194250
vt 0.287849 0.074566
vt 0.379424 0.073152
vt 0.477512 0.196544
vt 0.469101 0.309873
vt 0.578130 0.202360
vt 0.000247 0.198529
vt 0.104128 0.195323
vt 0.198830 0.194301
vt 0.287421 0.018740
vt 0.377604 0.015995
vt 0.474355 0.070392
vt 0.578130 0.060642
vt 0.007864 0.058115
vt 0.105883 0.069731
vt 0.197310 0.074216
vt 0.753420 0.803293
vt 0.622323 0.878982
vt 0.622323 0.727604
vt 0.469988 0.010513
vt 0.024404 0.000672
vt 0.111527 0.015590
vt 0.198705 0.019227
vt 0.919704 0.560525
vt 0.812838 0.547428
vt 0.919210 0.560525
vt 0.578624 0.247080
vt 0.561019 0.800180
vt 0.872612 0.831936
vt 0.999753 0.905341
vt 0.936183 0.942043
vt 0.709721 0.727604
vt 0.578624 0.803293
vt 0.709721 0.878982
vt 0.563123 0.000247
s 1
usemtl None
f 9/1/1 12/2/2 11/3/3
f 5/4/2 4/5/3 3/6/4
f 3/6/4 7/7/5 10/8/6
f 6/9/7 10/10/6 9/11/1
f 5/4/2 9/1/1 8/12/8
f 3/13/4 4/14/3 8/15/8
f 7/16/5 8/15/8 1/17/9
f 9/11/1 10/10/6 2/18/10
f 23/19/2 24/20/3 19/21/8
f 13/22/7 14/23/2 15/24/3
f 20/25/5 17/26/6 13/22/7
f 19/27/8 20/28/5 16/29/4
f 18/30/1 19/21/8 15/24/3
f 13/31/7 17/32/6 18/33/1
f 21/34/10 22/35/9 24/20/3
f 12/2/2 2/36/10 1/37/9
f 9/11/1 2/18/10 12/38/2
f 1/17/9 8/15/8 11/39/3
f 19/27/8 24/40/3 22/41/9
f 21/42/10 23/43/2 18/33/1
f 17/32/6 21/42/10 18/33/1
f 19/27/8 22/41/9 20/28/5
f 26/44/11 28/45/12 27/46/13
f 28/45/12 30/47/14 29/48/15
f 30/47/14 32/49/16 31/50/17
f 31/51/17 32/52/16 34/53/18
f 28/54/12 26/55/11 32/56/16
f 36/57/19 26/44/11 25/58/20
f 34/53/18 36/57/19 35/59/21
f 25/58/20 37/60/22 42/61/23
f 37/60/22 43/62/24 48/63/25
f 35/59/21 42/61/23 41/64/26
f 33/65/27 41/64/26 40/66/28
f 31/50/17 40/67/28 39/68/29
f 29/48/15 39/68/29 38/69/30
f 27/46/13 38/69/30 37/60/22
f 43/62/24 49/70/31 54/71/32
f 42/61/23 48/63/25 47/72/33
f 41/64/26 47/72/33 46/73/34
f 40/67/28 46/74/34 45/75/35
f 39/68/29 45/75/35 44/76/36
f 38/69/30 44/76/36 43/62/24
f 49/77/31 51/78/37 53/79/38
f 48/63/25 54/71/32 53/80/38
f 46/73/34 47/72/33 53/80/38
f 45/75/35 46/74/34 52/81/39
f 45/75/35 51/82/37 50/83/40
f 44/76/36 50/83/40 49/70/31
f 8/12/8 9/1/1 11/3/3
f 6/84/7 5/4/2 3/6/4
f 6/84/7 3/6/4 10/8/6
f 5/85/2 6/9/7 9/11/1
f 4/5/3 5/4/2 8/12/8
f 7/16/5 3/13/4 8/15/8
f 18/30/1 23/19/2 19/21/8
f 16/86/4 13/22/7 15/24/3
f 16/86/4 20/25/5 13/22/7
f 15/87/3 19/27/8 16/29/4
f 14/23/2 18/30/1 15/24/3
f 14/88/2 13/31/7 18/33/1
f 23/19/2 21/34/10 24/20/3
f 11/3/3 12/2/2 1/37/9
f 25/58/20 26/44/11 27/46/13
f 27/46/13 28/45/12 29/48/15
f 29/48/15 30/47/14 31/50/17
f 33/65/27 31/51/17 34/53/18
f 32/56/16 30/89/14 28/54/12
f 36/90/19 34/91/18 32/56/16
f 32/56/16 26/55/11 36/90/19
f 35/59/21 36/57/19 25/58/20
f 33/65/27 34/53/18 35/59/21
f 35/59/21 25/58/20 42/61/23
f 42/61/23 37/60/22 48/63/25
f 33/65/27 35/59/21 41/64/26
f 31/51/17 33/65/27 40/66/28
f 29/48/15 31/50/17 39/68/29
f 27/46/13 29/48/15 38/69/30
f 25/58/20 27/46/13 37/60/22
f 48/63/25 43/62/24 54/71/32
f 41/64/26 42/61/23 47/72/33
f 40/66/28 41/64/26 46/73/34
f 39/68/29 40/67/28 45/75/35
f 38/69/30 39/68/29 44/76/36
f 37/60/22 38/69/30 43/62/24
f 53/79/38 54/92/32 49/77/31
f 51/78/37 52/93/39 53/79/38
f 49/77/31 50/94/40 51/78/37
f 47/72/33 48/63/25 53/80/38
f 52/95/39 46/73/34 53/80/38
f 51/82/37 45/75/35 52/81/39
f 44/76/36 45/75/35 50/83/40
f 43/62/24 44/76/36 49/70/31
