# Blender 3.6.0
# www.blender.org
mtllib CutterMastRecentered.mtl
o SloopSails0.001_Circle.014
v 0.438450 0.123612 -0.039578
v 0.438450 0.110775 -0.017344
v 0.438450 0.136449 -0.017344
v -0.438450 0.123612 -0.039578
v -0.438450 0.110775 -0.017344
v -0.438450 0.136449 -0.017344
v 0.190880 1.319517 -0.039578
v 0.190880 1.306680 -0.017344
v 0.190880 1.332354 -0.017344
v -0.190880 1.319517 -0.039578
v -0.190880 1.306680 -0.017344
v -0.190880 1.332354 -0.017344
v 0.299973 0.990047 -0.039578
v 0.299973 0.977210 -0.017344
v 0.299973 1.002883 -0.017344
v -0.299973 0.990047 -0.039578
v -0.299973 0.977210 -0.017344
v -0.299973 1.002884 -0.017344
v 0.000000 0.921763 0.007473
v 0.012837 0.942605 -0.000270
v -0.012837 0.942605 -0.000270
v 0.000000 1.140363 0.595921
v 0.012837 1.161206 0.588179
v -0.012837 1.161206 0.588179
v 0.000000 0.044248 0.000215
v -0.012837 0.022238 0.003359
v 0.012837 0.022238 0.003359
v 0.000000 0.192839 1.040436
v -0.012837 0.170829 1.043580
v 0.012837 0.170829 1.043580
v 0.000000 -0.002686 -0.017297
v -0.016982 -0.002686 0.012116
v 0.016982 -0.002686 0.012116
v 0.000000 1.400582 -0.017297
v -0.016982 1.400582 0.012116
v 0.016982 1.400582 0.012116
vn -0.0000 0.8660 -0.5000
vn -0.0000 -0.0000 1.0000
vn -0.0000 -0.8660 -0.5000
vn -1.0000 -0.0000 -0.0000
vn 1.0000 -0.0000 -0.0000
vn -0.8660 -0.4687 0.1741
vn -0.0000 0.9374 -0.3482
vn 0.8660 -0.4687 0.1741
vn -0.0000 0.3482 0.9374
vn 0.8660 0.4950 -0.0707
vn -0.0000 -0.9900 0.1414
vn -0.8660 0.4950 -0.0707
vn -0.0000 0.1414 0.9900
vn 0.8660 -0.0000 -0.5000
vn -0.8660 -0.0000 -0.5000
vn -0.0000 1.0000 -0.0000
vt 0.847672 0.188580
vt 0.686438 0.188580
vt 0.686438 0.180405
vt 0.847673 0.180406
vt 0.686438 0.168996
vt 0.847673 0.168997
vt 0.686438 0.159774
vt 0.603808 0.091524
vt 0.592400 0.091524
vt 0.597304 0.084984
vt 0.603808 0.065417
vt 0.594585 0.065417
vt 0.595763 0.057328
vt 0.722169 0.134975
vt 0.625211 0.134975
vt 0.625211 0.126801
vt 0.722169 0.126801
vt 0.625211 0.115392
vt 0.722169 0.115392
vt 0.625211 0.106168
vt 0.603808 0.084611
vt 0.595719 0.076565
vt 0.603808 0.075387
vt 0.603808 0.055625
vt 0.594681 0.056955
vt 0.594681 0.048780
vt 0.777582 0.087612
vt 0.777582 0.095786
vt 0.625211 0.095786
vt 0.625211 0.087611
vt 0.625211 0.076203
vt 0.777582 0.076204
vt 0.625211 0.066979
vt 0.603808 0.075014
vt 0.595719 0.066968
vt 0.603808 0.065790
vt 0.603808 0.047078
vt 0.594681 0.048407
vt 0.594681 0.040233
vt 0.865371 0.136800
vt 0.972779 0.136800
vt 0.973773 0.148028
vt 0.866365 0.148028
vt 0.973773 0.159503
vt 0.866365 0.159503
vt 0.972779 0.170730
vt 0.592334 0.091897
vt 0.603808 0.091897
vt 0.598071 0.101706
vt 0.802383 0.093194
vt 0.802383 0.081720
vt 0.976999 0.081720
vt 0.976999 0.093194
vt 0.976999 0.104669
vt 0.802383 0.116143
vt 0.802383 0.104669
vt 0.603808 0.113554
vt 0.593871 0.107817
vt 0.603808 0.102079
vt 0.625933 0.031305
vt 0.980216 0.019818
vt 0.979735 0.031345
vt 0.625452 0.042830
vt 0.979894 0.046522
vt 0.625611 0.058007
vt 0.980616 0.058011
vt 0.603808 0.125484
vt 0.592361 0.115516
vt 0.603808 0.113928
vt 0.625211 0.019818
vt 0.847673 0.159774
vt 0.722169 0.106168
vt 0.777582 0.066980
vt 0.865371 0.170730
vt 0.976999 0.116144
s 0
usemtl None.003
f 1/1/1 4/2/1 6/3/1
f 3/4/2 6/3/2 5/5/2
f 2/6/3 5/5/3 4/7/3
f 5/8/4 6/9/4 4/10/4
f 2/11/5 1/12/5 3/13/5
f 7/14/1 10/15/1 12/16/1
f 9/17/2 12/16/2 11/18/2
f 8/19/3 11/18/3 10/20/3
f 11/21/4 12/22/4 10/23/4
f 8/24/5 7/25/5 9/26/5
f 15/27/1 13/28/1 16/29/1
f 15/27/2 18/30/2 17/31/2
f 14/32/3 17/31/3 16/33/3
f 17/34/4 18/35/4 16/36/4
f 14/37/5 13/38/5 15/39/5
f 19/40/6 22/41/6 24/42/6
f 21/43/7 24/42/7 23/44/7
f 20/45/8 23/44/8 22/46/8
f 23/47/9 24/48/9 22/49/9
f 27/50/10 25/51/10 28/52/10
f 27/50/11 30/53/11 29/54/11
f 25/55/12 26/56/12 29/54/12
f 29/57/13 30/58/13 28/59/13
f 31/60/14 34/61/14 36/62/14
f 33/63/2 36/62/2 35/64/2
f 32/65/15 35/64/15 34/66/15
f 35/67/16 36/68/16 34/69/16
f 33/63/14 31/60/14 36/62/14
f 32/65/2 33/63/2 35/64/2
f 31/60/15 32/70/15 34/61/15
f 3/4/1 1/1/1 6/3/1
f 2/6/2 3/4/2 5/5/2
f 1/71/3 2/6/3 4/7/3
f 9/17/1 7/14/1 12/16/1
f 8/19/2 9/17/2 11/18/2
f 7/72/3 8/19/3 10/20/3
f 18/30/1 15/27/1 16/29/1
f 14/32/2 15/27/2 17/31/2
f 13/73/3 14/32/3 16/33/3
f 21/43/6 19/40/6 24/42/6
f 20/45/7 21/43/7 23/44/7
f 19/74/8 20/45/8 22/46/8
f 30/53/10 27/50/10 28/52/10
f 26/56/11 27/50/11 29/54/11
f 28/75/12 25/55/12 29/54/12
