# Blender 3.6.0
# www.blender.org
mtllib FrigateMainMast.mtl
o ShipSails0.001_Plane.006
v -0.648900 0.131742 -0.036425
v 0.648900 0.145400 -0.060083
v 0.648900 0.159060 -0.036425
v 0.648900 0.131741 -0.036425
v -0.648900 0.145401 -0.060083
v -0.648900 0.159060 -0.036425
v -0.391859 2.831109 -0.036425
v 0.391859 2.844768 -0.060083
v 0.391859 2.858427 -0.036425
v 0.391859 2.831109 -0.036425
v -0.391859 2.844768 -0.060083
v -0.391859 2.858427 -0.036425
v -0.526365 2.257977 -0.036425
v 0.526365 2.271636 -0.060083
v 0.526365 2.285295 -0.036425
v 0.526365 2.257977 -0.036425
v -0.526365 2.271636 -0.060083
v -0.526365 2.285295 -0.036425
v -0.833120 1.100591 -0.036425
v 0.833119 1.114250 -0.060083
v 0.833119 1.127909 -0.036425
v 0.833119 1.100590 -0.036425
v -0.833120 1.114250 -0.060083
v -0.833120 1.127909 -0.036425
v 0.000000 0.012377 -0.026425
v -0.028243 0.012377 0.022494
v 0.028243 0.012377 0.022494
v 0.000000 1.542742 -0.026425
v -0.028243 1.542742 0.022494
v 0.028243 1.542742 0.022494
v 0.000000 1.542742 -0.014842
v -0.018212 1.542742 0.016702
v 0.018212 1.542742 0.016702
v 0.000000 3.073107 -0.014842
v -0.018212 3.073107 0.016702
v 0.018212 3.073107 0.016702
vn -0.0000 0.8660 -0.5000
vn -0.0000 -0.0000 1.0000
vn 1.0000 -0.0000 -0.0000
vn -0.0000 -0.8660 -0.5000
vn -1.0000 -0.0000 -0.0000
vn 0.8660 -0.0000 -0.5000
vn -0.8660 -0.0000 -0.5000
vn -0.0000 1.0000 -0.0000
vt 0.570370 0.840643
vt 0.847513 0.840738
vt 0.847511 0.846572
vt 0.570372 0.834809
vt 0.847515 0.834904
vt 0.283601 0.279047
vt 0.283601 0.273213
vt 0.288653 0.276130
vt 0.570374 0.828975
vt 0.847517 0.829070
vt 0.282741 0.292434
vt 0.277689 0.289517
vt 0.282741 0.286600
vt 0.699812 0.809751
vt 0.699812 0.803917
vt 0.867178 0.803917
vt 0.699812 0.798083
vt 0.867178 0.798083
vt 0.293223 0.251258
vt 0.293223 0.245424
vt 0.298275 0.248341
vt 0.699812 0.792250
vt 0.867178 0.792250
vt 0.282741 0.279047
vt 0.277689 0.276130
vt 0.282741 0.273213
vt 0.000430 0.884125
vt 0.225242 0.884125
vt 0.225242 0.889959
vt 0.000430 0.878292
vt 0.225242 0.878292
vt 0.285285 0.272354
vt 0.285285 0.266520
vt 0.290337 0.269437
vt 0.000430 0.872458
vt 0.225242 0.872458
vt 0.288653 0.292434
vt 0.283601 0.289517
vt 0.288653 0.286600
vt 0.000436 0.847213
vt 0.345295 0.847213
vt 0.345288 0.853232
vt 0.000443 0.841194
vt 0.345301 0.841194
vt 0.271777 0.287685
vt 0.271777 0.281851
vt 0.276830 0.284768
vt 0.000449 0.835174
vt 0.345307 0.835174
vt 0.276830 0.294378
vt 0.271777 0.291461
vt 0.276830 0.288544
vt 0.769319 0.317810
vt 0.769319 0.644621
vt 0.757256 0.644621
vt 0.757256 0.317810
vt 0.745193 0.644621
vt 0.745193 0.317810
vt 0.733130 0.644621
vt 0.270093 0.244762
vt 0.280540 0.238731
vt 0.280540 0.250793
vt 0.854919 0.317810
vt 0.854919 0.644622
vt 0.847140 0.644622
vt 0.847140 0.317810
vt 0.839362 0.644622
vt 0.839362 0.317810
vt 0.831583 0.644622
vt 0.270093 0.273213
vt 0.276830 0.277102
vt 0.270093 0.280992
vt 0.570368 0.846476
vt 0.867178 0.809751
vt 0.000430 0.889959
vt 0.000430 0.853233
vt 0.733131 0.317810
vt 0.831583 0.317810
s 0
usemtl None.059
f 6/1/1 3/2/1 2/3/1
f 1/4/2 4/5/2 3/2/2
f 3/6/3 4/7/3 2/8/3
f 5/9/4 2/10/4 4/5/4
f 6/11/5 5/12/5 1/13/5
f 11/14/1 12/15/1 9/16/1
f 7/17/2 10/18/2 9/16/2
f 9/19/3 10/20/3 8/21/3
f 11/22/4 8/23/4 10/18/4
f 12/24/5 11/25/5 7/26/5
f 18/27/1 15/28/1 14/29/1
f 13/30/2 16/31/2 15/28/2
f 15/32/3 16/33/3 14/34/3
f 13/30/4 17/35/4 14/36/4
f 18/37/5 17/38/5 13/39/5
f 24/40/1 21/41/1 20/42/1
f 19/43/2 22/44/2 21/41/2
f 21/45/3 22/46/3 20/47/3
f 23/48/4 20/49/4 22/44/4
f 24/50/5 23/51/5 19/52/5
f 25/53/6 28/54/6 30/55/6
f 27/56/2 30/55/2 29/57/2
f 26/58/7 29/57/7 28/59/7
f 29/60/8 30/61/8 28/62/8
f 31/63/6 34/64/6 36/65/6
f 33/66/2 36/65/2 35/67/2
f 32/68/7 35/67/7 34/69/7
f 35/70/8 36/71/8 34/72/8
f 5/73/1 6/1/1 2/3/1
f 6/1/2 1/4/2 3/2/2
f 1/4/4 5/9/4 4/5/4
f 8/74/1 11/14/1 9/16/1
f 12/15/2 7/17/2 9/16/2
f 7/17/4 11/22/4 10/18/4
f 17/75/1 18/27/1 14/29/1
f 18/27/2 13/30/2 15/28/2
f 16/31/4 13/30/4 14/36/4
f 23/76/1 24/40/1 20/42/1
f 24/40/2 19/43/2 21/41/2
f 19/43/4 23/48/4 22/44/4
f 27/56/6 25/53/6 30/55/6
f 26/58/2 27/56/2 29/57/2
f 25/77/7 26/58/7 28/59/7
f 33/66/6 31/63/6 36/65/6
f 32/68/2 33/66/2 35/67/2
f 31/78/7 32/68/7 34/69/7
